<svg xmlns="http://www.w3.org/2000/svg" viewBox="0 0 2596.76014 1115.59553"><defs><style>.cls-1{fill:#727272;}.cls-2{fill:#e3e5e5;}.cls-3{fill:#ed1a3b;}.cls-4{fill:#010101;}.cls-5{fill:#fff;opacity:0.37;}</style></defs><title>404</title><g id="Layer_2" data-name="Layer 2"><g id="Layer"><ellipse class="cls-1" cx="1982.75321" cy="1070.13281" rx="193.04658" ry="45.46272"/><path d="M1908.4814,596.85248c-66.67842,0-129.56068-20.69716-177.06313-58.2781-47.68228-37.72366-74.45118-88.11579-75.37561-141.8947l-.03327-1.95418,1.63413-1.07232c55.845-36.63743,75.40021-114.57577,75.59139-115.35853l.806-3.30429,3.33514.66643c4.94189.98848,13.72419,1.48935,26.10247,1.48935,13.61063,0,29.3344-.60543,40.81564-1.04742,7.40205-.28537,13.24865-.51052,16.53357-.51052,82.28792,0,179.7073-50.22174,180.68195-50.72886l7.41248-3.85914-2.37391,8.01273c-5.83069,19.67818-3.44843,43.2841,7.08065,70.16246,8.54474,21.81389,22.42173,45.76065,41.24543,71.17668a613.36924,613.36924,0,0,0,65.83919,74.34648c14.3082-14.94271,25.5452-30.81162,33.42359-47.20907l7.27877-15.14984-.53691,16.79922c-1.70237,53.25449-28.812,103.05644-76.33563,140.23284C2037.15895,576.43863,1974.63235,596.85248,1908.4814,596.85248ZM1663.18049,398.48632C1666.29708,504.13281,1775.83463,589.759,1908.4814,589.759c64.57428,0,125.54882-19.87907,171.69117-55.97413C2121.02,501.8309,2146.22818,460.316,2152.39,415.483a204.26967,204.26967,0,0,1-29.03931,36.67829l-2.39895,2.43009-2.51939-2.30538a615.00137,615.00137,0,0,1-69.25846-77.71177c-19.19574-25.91825-33.37684-50.41568-42.14985-72.81145-9.82625-25.0842-12.88077-47.64617-9.11619-67.206-9.73766,4.69326-29.06633,13.56495-53.15022,22.34519-32.25805,11.76036-79.94444,25.77972-123.92994,25.77972-3.14809,0-8.93474.223-16.26061.505-11.53876.44405-27.34149,1.053-41.08859,1.053a198.07866,198.07866,0,0,1-24.20063-1.091,258.71221,258.71221,0,0,1-16.3351,42.10233C1711.94232,347.718,1692.70471,378.46453,1663.18049,398.48632Z"/><path d="M1820.82769,279.13493c-12.64187,0-66.61677,3.50588-84.14719,0,0,0-35.06183,143.75255-150.7646,136.74015,0,0,17.5307-52.593,0-115.70285,0,0,0-139.45,117.45607-145.10748,0,0,395.85357-124.94652,429.50294,70.869,0,0,95.60518,114.68586-12.04814,223.7358,0,0-144.24753-131.99567-117.67917-221.66457C2003.1476,228.005,1904.97524,279.13493,1820.82769,279.13493Z"/><path d="M1896.21017,415.91594a15.63753,15.63753,0,1,1,15.818-15.63759A15.74661,15.74661,0,0,1,1896.21017,415.91594Zm0-24.1795a8.54489,8.54489,0,1,0,8.72449,8.54191A8.64473,8.64473,0,0,0,1896.21017,391.73644Z"/><path d="M1740.18638,415.91594c-7.75574,0-14.06539-7.01525-14.06539-15.63759,0-8.62164,6.30966-15.63539,14.06539-15.63539,7.75538,0,14.065,7.01376,14.065,15.63539C1754.25142,408.90069,1747.94176,415.91594,1740.18638,415.91594Zm0-24.1795c-3.84424,0-6.9719,3.83211-6.9719,8.54191,0,4.71121,3.12766,8.5441,6.9719,8.5441s6.97155-3.83289,6.97155-8.5441C1747.15793,395.56856,1744.03063,391.73644,1740.18638,391.73644Z"/><path d="M1871.1464,397.3703c-17.81444,0-30.18087-5.68515-30.78736-5.96917l3.00572-6.42571a74.859,74.859,0,0,0,37.32429,4.70014c28.27209-3.59037,51.9102-22.4789,70.25836-56.139l6.22829,3.3943c-24.39422,44.75344-54.77569,57.237-75.96711,59.82845A82.84278,82.84278,0,0,1,1871.1464,397.3703Z"/><path d="M1740.4631,393.44193c-11.26815.00064-22.51039-1.96185-30.60967-9.09342-7.45582-6.565-11.2841-16.74793-11.379-30.26713l7.09349-.04987c.081,11.5726,3.01608,19.74812,8.97319,24.9934,11.32461,9.97174,32.22408,7.45369,47.48373,5.61457,10.57753-1.27463,18.22005-2.19593,22.27177.64629l-4.07251,5.80779c-1.82777-1.28151-10.43487-.24451-17.35067.58883A188.16436,188.16436,0,0,1,1740.4631,393.44193Z"/><path d="M1981.84288,513.81641c-160.816-42.71605-174.37194-2.93642-174.4904-2.52982l.02185-.08519-6.90508-1.62512c.16351-.69481,1.87453-6.95566,11.45662-12.70039,18.73744-11.23254,63.743-18.601,171.73821,10.08538Z"/><path d="M2157.41809,805.05808c-136.73972,136.73944-375.15775,24.54176-375.15775,24.54176s-21.97981,167.61689,21.66145,227.2209c0,0,22.91388,33.3823,54.41236-8.51289,0,0-71.844-106.32335,10.91078-146.7382,0,0,71.48518,49.11963,168.23543,17.2925,0,0,105.56271-27.7117,67.25405,121.26606,0,0,11.5155,48.65614,52.59955,11.42647C2157.334,1051.55468,2172.00934,956.79287,2157.41809,805.05808Z"/><path class="cls-2" d="M2104.45457,521.099c-45.57182,46.55242-116.41284,76.46282-195.97317,76.46282a300.54994,300.54994,0,0,1-104.53884-18.40426l-.02078.00411s-107.3846,102.60686-149.46267-39.40694l-32.41014-4.73611s20.37859,186.736,163.78335,125.148c-10.64264,57.89228-19.24242,132.55542-3.572,173.68927,0,0,238.418,112.19768,375.15775-24.54176,0,0,12.48533-135.75025-13.44819-223.70111,50.599,30.105,99.14015,128.9061,99.14015,128.9061h36.81825C2264.14947,556.72718,2104.45457,521.099,2104.45457,521.099Z"/><path d="M1638.97361,542.30811c-18.53138,0-30.043-8.97354-30.043-23.41957,0-8.18312,3.96724-16.15776,11.79221-23.70636l.0149-.01667c7.84582-8.81763,18.50059-13.47826,30.81233-13.47826a51.39437,51.39437,0,0,1,17.52524,3.05559l.51293.20507.426.35255a8.812,8.812,0,0,1,3.58206,7.67955c-.3346,4.308-3.96653,8.783-10.80785,13.3266a30.12425,30.12425,0,0,1,2.73865,12.58193C1665.52709,533.99057,1656.09708,542.30811,1638.97361,542.30811Zm-8.69647-46.463.00383.00064-4.43066,4.24708c-6.52026,6.22347-9.82625,12.54731-9.82625,18.79568,0,15.1485,17.56574,16.32608,22.94956,16.32608,13.09458,0,19.46-5.34019,19.46-16.32608a22.92013,22.92013,0,0,0-3.35032-11.98132l-1.87836-3.06737,3.0934-1.83508c6.86656-4.07386,10.0836-7.74389,10.22561-9.57337.01525-.19677.04817-.61862-.628-1.30031a45.96132,45.96132,0,0,0-14.34594-2.35036C1643.281,488.78073,1636.14941,491.15329,1630.27714,495.84513Z"/><path class="cls-3" d="M1883.30371,596.53519c-1.03181,30.96541-1.80487,89.87667,10.03409,117.984l33.23234,19.91574,27.49145-35.29839s-31.51962-64.5237-35.88935-101.74166c-3.217.09981-6.4433.167-9.69084.167C1899.98036,597.56183,1891.58522,597.203,1883.30371,596.53519Z"/><path d="M2261.00968,781.39606c-20.7034,0-37.547-15.6549-37.547-34.898s16.84355-37.02608,37.547-37.02608c20.70312,0,37.54632,17.78295,37.54632,37.02608S2281.7128,781.39606,2261.00968,781.39606Zm0-64.83064c-16.79191,0-30.45347,14.60123-30.45347,29.9326s13.66156,27.80455,30.45347,27.80455c16.79163,0,30.45283-12.47319,30.45283-27.80455S2277.80131,716.56542,2261.00968,716.56542Z"/><ellipse class="cls-1" cx="2363.5544" cy="423.60272" rx="52.82329" ry="12.43995"/><path d="M2335.70161,278.37069c-13.00387-10.17257-20.42188-23.79986-20.8877-38.37188l-.14691-4.59677,1.99169,4.14545a50.38346,50.38346,0,0,0,9.14569,12.91781,167.83606,167.83606,0,0,0,18.01556-20.34341,86.96094,86.96094,0,0,0,11.286-19.47606c2.88107-7.35472,3.53293-13.814,1.93748-19.19853l-.64957-2.19252,2.02828,1.056c.26669.13876,26.92353,13.88092,49.44,13.88092.89885,0,2.49866.06161,4.52408.13969,3.14161.12094,7.4441.28661,11.16837.28661a42.307,42.307,0,0,0,7.14241-.40753l.91259-.18236.22053.90415c.05231.21419,5.40321,21.54043,20.68405,31.56553l.44715.29342-.0091.53472c-.25295,14.71551-7.57772,28.5043-20.625,38.82661-12.99808,10.28326-30.20454,15.94662-48.44974,15.94662C2365.77651,294.09914,2348.66737,288.51331,2335.70161,278.37069Zm98.94466-58.58982a70.79144,70.79144,0,0,1-4.46977-11.52045,54.20022,54.20022,0,0,1-6.622.29854c-3.76162,0-8.08571-.16661-11.24306-.28812-2.00457-.07715-3.588-.13818-4.44939-.13818-12.03574,0-25.08416-3.83611-33.91092-7.0541-6.59007-2.40254-11.879-4.83009-14.54348-6.11431,1.0301,5.35214.19429,11.52577-2.49446,18.38955a88.87184,88.87184,0,0,1-11.53345,19.92338,168.28274,168.28274,0,0,1-18.95117,21.26425l-.68938.63082-.65642-.66494a55.89422,55.89422,0,0,1-7.946-10.03627c1.68606,12.26765,8.58377,23.62737,19.76084,32.37092,12.62592,9.87668,29.31037,15.31619,46.97981,15.31619,36.2961,0,66.26883-23.42987,67.12163-52.33789C2442.9203,234.3417,2437.65632,225.92855,2434.64627,219.78087Z"/><path d="M2472.1409,244.57834c3.21107-6.64471-4.79692-14.391,0-31.65974,0,0,0-38.15767-32.13948-39.70572,0,0-108.31731-34.18908-117.52478,19.39188,0,0-26.16042,31.38146,3.29673,61.22077,0,0,33.84059,22.99739,60.1727,22.46807C2435.69844,275.29348,2470.53536,247.9007,2472.1409,244.57834Z"/><path d="M2315.7609,351.07039c37.41605,37.416,102.65432,6.71536,102.65432,6.71536s6.01433,45.865-5.92722,62.1744c0,0-6.26992,9.13439-14.88884-2.32938,0,0,10.69838-23.02947,2.24107-24.747,0,0-14.51917,11.01724-38.662,9.96755-20.84124-.90614-41.48389-28.22345-31.0015,12.5413,0,0-3.151,13.31377-14.3928,3.12662C2315.78392,418.51919,2311.7683,392.58954,2315.7609,351.07039Z"/><path class="cls-2" d="M2330.25329,273.37074c12.46981,12.73813,31.854,20.9225,53.62409,20.9225a82.2394,82.2394,0,0,0,28.60493-5.036l.00569.00113s29.38362,28.07629,40.89743-10.78291l8.86838-1.29594s-5.57619,51.09653-44.816,34.24423c2.91214,15.84105,5.2653,36.2711.9774,47.52655,0,0-65.23827,30.70062-102.65432-6.71536,0,0-3.41636-37.14531,3.67982-61.21128-13.84539,8.23763-27.12769,35.27254-27.12769,35.27254h-10.07457C2286.556,283.11967,2330.25329,273.37074,2330.25329,273.37074Z"/><path d="M2450.35691,272.76589a8.24289,8.24289,0,0,1,.74938-3.44279c-1.872-1.24326-2.86579-2.46775-2.95735-3.64656a2.41124,2.41124,0,0,1,.98016-2.10135l.11658-.09647.14035-.05611a14.063,14.063,0,0,1,4.79543-.8361,10.9589,10.9589,0,0,1,8.43117,3.68805l.00408.00456c2.14114,2.06552,3.2267,4.24762,3.2267,6.48677,0,3.95286-3.14993,6.40829-8.22067,6.40829C2452.93724,279.17418,2450.35691,276.89825,2450.35691,272.76589Zm3.82454-8.23839a12.57638,12.57638,0,0,0-3.92548.64313c-.185.18653-.176.302-.17184.3558.03886.5006.91914,1.50483,2.798,2.61956l.84645.50213-.514.83932a6.27163,6.27163,0,0,0-.91675,3.27845c0,3.00607,1.74177,4.4673,5.32483,4.4673,1.47317,0,6.27968-.32222,6.27968-4.4673,0-1.70974-.90462-3.44013-2.68876-5.14306l-1.21236-1.16213.001-.00017A9.06062,9.06062,0,0,0,2454.18145,264.5275Z"/><path d="M2277.14137,355.04661a10.27488,10.27488,0,0,1,20.54776,0c0,5.2655-4.6089,9.54914-10.274,9.54914S2277.14137,360.31211,2277.14137,355.04661Zm1.941,0c0,4.19512,3.73811,7.60815,8.3328,7.60815s8.333-3.413,8.333-7.60815a8.33413,8.33413,0,0,0-16.66578,0Z"/><path class="cls-4" d="M0,745.85588V620.22111L293.79346,225.91984H416.52979V632.78459h89.87744V745.85588H416.52979V902.4174H286.062V745.85588ZM283.16309,397.94279,108.23975,632.78459H286.062V397.94279Z"/><path class="cls-4" d="M561.97705,395.52678q19.79663-67.15869,53.63623-107.75635,33.81738-40.58936,78.76416-57.98535a261.33968,261.33968,0,0,1,95.19287-17.39551q51.21313,0,96.15918,17.39551,44.93921,17.395,79.24707,57.98535,34.29346,40.59082,54.12012,107.75635,19.79663,67.18213,19.81152,165.74219,0,101.47412-19.81152,169.60742Q999.27734,799.0092,964.97656,839.6q-34.31543,40.58936-79.24707,57.98535-44.93848,17.395-96.15918,17.39551a261.36016,261.36016,0,0,1-95.19287-17.39551Q649.43823,880.18888,615.61328,839.6q-33.83936-40.59082-53.63623-108.72363Q542.15771,662.74357,542.165,561.269,542.165,462.69377,561.97705,395.52678ZM681.33057,631.33439a376.0359,376.0359,0,0,0,12.08008,79.24707q10.14771,38.18994,32.37549,65.23438,22.22021,27.06738,63.78418,27.05957,42.51489,0,65.23389-27.05957,22.69556-27.04541,32.8584-65.23437a376.95432,376.95432,0,0,0,12.08008-79.24707q1.92554-41.06543,1.93311-70.06543,0-17.39648-.4834-42.04a469.54141,469.54141,0,0,0-3.86572-50.7373,474.95536,474.95536,0,0,0-9.66406-51.70312,158.7997,158.7997,0,0,0-18.84521-45.90527,103.8066,103.8066,0,0,0-31.89209-32.85791q-19.344-12.54932-47.355-12.56445-28.0415,0-46.87158,12.56445a100.80721,100.80721,0,0,0-30.92578,32.85791,177.67245,177.67245,0,0,0-18.84521,45.90527,355.67288,355.67288,0,0,0-9.66455,51.70313q-2.89893,26.09326-3.38232,50.7373-.498,24.64453-.4834,42.04Q679.39746,590.26115,681.33057,631.33439Z"/><path class="cls-4" d="M1074.66553,745.85588V620.22111l293.793-394.30127h122.73633V632.78459h89.87793V745.85588h-89.87793V902.4174H1360.728V745.85588Zm283.16309-347.91309-174.92334,234.8418H1360.728V397.94279Z"/><path class="cls-3" d="M2380.78076,79.08049a22.05607,22.05607,0,0,1,12.18945-3.19482q9.49951,0,15.7832,4.53955,6.28418,4.53955,6.28516,13.45068a15.21453,15.21453,0,0,1-2.72461,9.20557,31.38823,31.38823,0,0,1-6.12109,5.80029l-2.97656,2.312a9.02858,9.02858,0,0,0-3.22754,4.41357,18.64206,18.64206,0,0,0-.54492,4.96h-11.3916q.252-7.103,1.3418-9.81494,1.08984-2.71069,5.61523-6.2417l3.06055-2.396a10.7107,10.7107,0,0,0,2.42969-2.48,8.47433,8.47433,0,0,0,1.67578-5.08594,9.82541,9.82541,0,0,0-1.86523-5.82178q-1.86621-2.62646-6.81445-2.627-4.86328,0-6.89844,3.23633a12.47142,12.47142,0,0,0-2.0332,6.72559h-12.14844Q2372.9209,84.08244,2380.78076,79.08049Zm6.97754,47.24561h12.56836v12.14746H2387.7583Z"/><rect class="cls-5" x="2172.00924" width="424.7509" height="490.54392"/></g></g></svg>