<svg xmlns="http://www.w3.org/2000/svg" viewBox="0 0 633.61743 488.16701"><defs><style>.cls-1{fill:#ed1f24;}</style></defs><title>assets</title><g id="Layer_2" data-name="Layer 2"><g id="Layer_1-2" data-name="Layer 1"><path class="cls-1" d="M588.05286,187.148a26.09,26.09,0,0,1-25.18647-19.36725l-.825-3.10406H422.37271l-.8253,3.10266a26.05915,26.05915,0,0,1-50.37091.0014l-.825-3.10406H341.3554a3.58558,3.58558,0,0,1-3.40655-2.46093c-.33039-.99321-7.95282-24.52025,3.78079-43.18662,7.11087-11.30771,19.64836-18.19049,37.26441-20.457a85.97164,85.97164,0,0,0,27.1542-8.18531C447.877,69.77278,488.00886,59.32059,525.43,59.32059a177.14092,177.14092,0,0,1,60.65179,10.255l1.00545.36506,18.96-2.92726a3.68656,3.68656,0,0,1,.55881-.04351,3.58757,3.58757,0,0,1,2.1353,6.463L603.98537,77.004l4.97251,3.26207a47.78979,47.78979,0,0,1,21.37819,35.52034l3.21179,32.93977a14.54045,14.54045,0,0,1-13.06188,15.882q-.70412.06861-1.4124.06853h-5.01228l-.825,3.10406A26.08787,26.08787,0,0,1,588.05286,187.148Zm0-44.946a18.88493,18.88493,0,1,0,18.88393,18.88592v-.00268A18.90652,18.90652,0,0,0,588.05286,142.202Zm-191.69259,0a18.88493,18.88493,0,1,0,18.88663,18.88325A18.88493,18.88493,0,0,0,396.36027,142.202Zm191.69259-7.17545a26.09834,26.09834,0,0,1,25.18815,19.368l.8253,3.10266h5.00718a7.346,7.346,0,0,0,5.47761-2.44054,7.22737,7.22737,0,0,0,1.85284-5.64247l-3.21111-32.93365A40.7272,40.7272,0,0,0,601.73922,84.3239a142.70393,142.70393,0,0,0-15.24078-6.93411l-.3535-.13664-.36982-.07036a3.54487,3.54487,0,0,1-1.1159-.41976l-.31953-.18627-.34736-.12747a169.73766,169.73766,0,0,0-58.54568-9.95045c-36.32015,0-75.38878,10.20131-116.12025,30.32112a93.1679,93.1679,0,0,1-29.41662,8.86819c-15.34785,1.97418-26.13176,7.72-32.05195,17.0773-6.85084,10.822-5.75192,24.25173-4.48712,31.29325l.61727,3.43851h26.36357l.825-3.10406a26.0594,26.0594,0,0,1,50.37057,0l.82462,3.10406H562.04041l.8253-3.10336A26.09762,26.09762,0,0,1,588.05286,135.02656Zm-306.01611,10.1672c-1.13393-5.86525-11.14633-57.51483-13.55709-64.86561-5.80634-17.717-19.823-37.94546-37.49536-54.11036C212.7649,9.556,194.05,0,179.63874,0H32.62468A11.0446,11.0446,0,0,0,21.67763,11.11525V36.0769H8.992v7.90117h12.6825v22.202H.59432A3.8237,3.8237,0,0,0,0,66.23121v7.79584a3.8237,3.8237,0,0,0,.59432.05109H21.67455V145.9533a11.04643,11.04643,0,0,0,10.95013,11.11581H51.94744l.3677,2.48043a31.88979,31.88979,0,0,0,63.20121,0l.36769-2.48043h66.94178l.36769,2.48043a31.89,31.89,0,0,0,63.2015.00057l.36714-2.481H271.1595a11.04642,11.04642,0,0,0,10.95012-11.11581A4.05784,4.05784,0,0,0,282.03675,145.19376ZM185.07743,8.23922l3.61417.98608c25.97912,7.087,60.77673,41.73213,71.60245,71.28895l1.43938,3.9301h-76.656ZM83.9159,179.25239a24.55457,24.55457,0,1,1,24.17986-24.55072A24.39519,24.39519,0,0,1,83.9159,179.25239Zm130.88093,0a24.55461,24.55461,0,1,1,24.17707-24.55072,24.39543,24.39543,0,0,1-24.17707,24.55072Zm58.7023-31.30245a3.29818,3.29818,0,0,1-2.67252,1.22031H246.3625l-.537-2.21832a31.84032,31.84032,0,0,0-62.05973,0l-.537,2.21832H115.48441l-.53752-2.21775a31.84211,31.84211,0,0,0-62.06284,0l-.53726,2.21775H32.62468a3.19644,3.19644,0,0,1-3.16829-3.21693V74.07812h85.14483v-7.898H29.4564v-22.202H70.455c.0481,0,.0948-.00557.14247-.00733V36.08733c-.04768-.00178-.09438-.00733-.14247-.00733H29.4564V11.11808a3.19644,3.19644,0,0,1,3.16829-3.21693H177.2992V88.39322a3.92445,3.92445,0,0,0,3.88937,3.95l82.223.00285.49435,2.28975c1.45846,6.75316,3.16632,15.43408,4.974,24.62469,1.75273,8.91144,3.56542,18.12625,5.22676,25.94944a3.27335,3.27335,0,0,1-.60754,2.74ZM237.46426,452.67782a3.46038,3.46038,0,0,0-3.45618-3.45618H198.57V413.78356a3.46038,3.46038,0,0,0-3.45618-3.45618H169.18364a3.46052,3.46052,0,0,0-3.45686,3.45618v35.43809H107.81535V357.104l.82326-.7274c.53841-.47587,1.02108-.92523,1.4752-1.37255l.37458-.36982.1414-.05235,57.08-21.028,1.55746,28.55836a3.45924,3.45924,0,0,0,3.45212,3.26855h5.97218v22.47263a3.45686,3.45686,0,0,0,6.91372,0V365.38071h6.758a3.44717,3.44717,0,0,0,3.4528-3.30866l1.78723-42.13359.68865-.67438a32.41718,32.41718,0,0,0-33.89153-53.57488L88.11228,293.79479l-.52686-.03943c-1.03264-.07546-1.88241-.11081-2.67371-.11081A35.9091,35.9091,0,0,0,49.04328,329.513a35.40775,35.40775,0,0,0,3.843,16.12046l.43032.85181-.26309.91707L23.96286,449.22164H13.6052a3.46052,3.46052,0,0,0-3.45686,3.45618V478.608a3.46067,3.46067,0,0,0,3.45686,3.45686H234.00808a3.46052,3.46052,0,0,0,3.45618-3.45686ZM172.6398,417.24042h19.01647v31.98123H172.6398ZM189.04986,358.467H175.99333l-1.49559-27.41423,15.96614-5.8906Zm-22.25919-86.291a25.49862,25.49862,0,1,1,17.64188,47.84854l-.0136.005L117.8297,344.56069l1.41741-4.68325a35.81668,35.81668,0,0,0-14.95253-40.52107l-4.102-2.64584Zm-81.8783,28.38024A28.95537,28.95537,0,1,1,55.957,329.51163h0A28.98789,28.98789,0,0,1,84.91237,300.55626ZM58.38393,353.91563l2.89261,2.54115a35.76887,35.76887,0,0,0,36.32526,6.59829l3.30118-1.25358v87.42015H31.15259ZM230.55122,475.15047H17.06206V456.13468H230.55122ZM437.42146,402.8486a42.778,42.778,0,0,0-29.87108,72.9061,41.825,41.825,0,0,0,29.87108,12.41209c23.6834,0,42.23556-18.73845,42.23556-42.65908a42.67263,42.67263,0,0,0-12.22784-30.11037A41.74529,41.74529,0,0,0,437.42146,402.8486Zm0,77.29567a34.63865,34.63865,0,0,1,0-69.27317c18.84312,0,34.21238,15.53718,34.26,34.63454C471.68143,464.93,456.63236,480.14427,437.42146,480.14427Zm157.934-48.29815c-15.55349,0-27.73646,12.45217-27.73646,28.349a27.92479,27.92479,0,1,0,55.84954.04691,28.309,28.309,0,0,0-8.17682-20.08174A27.88352,27.88352,0,0,0,595.35544,431.84612Zm0,48.29815c-11.2387,0-19.714-8.57655-19.714-19.94918,0-11.39774,8.65949-20.32647,19.714-20.32647a20.14145,20.14145,0,0,1,.42784,40.27716Q595.56936,480.14734,595.35544,480.14427ZM415.37709,396.561h53.09017l27.63041,60.66331a3.99346,3.99346,0,0,0,3.64993,2.36916H552.141a3.96078,3.96078,0,0,0,3.48949-2.04556l17.99337-31.9887h34.2151l8.39436,8.49157a4.04017,4.04017,0,0,0,2.83075,1.19376l.04011.0007a3.902,3.902,0,0,0,2.77976-1.15025,4.0268,4.0268,0,0,0,.05256-5.69451l-.00565-.00574-9.5582-9.652a4.01507,4.01507,0,0,0-2.84775-1.206h-5.54457V382.89942a4.01583,4.01583,0,0,0-4.01159-4.01091h-19.714V305.60376a4.016,4.016,0,0,0-4.01159-4.01159H562.07373a4.01142,4.01142,0,0,0,0,8.02284h10.15848v69.27351H521.86878l-.14684-.50034L498.60823,299.444a3.98883,3.98883,0,0,0-3.85045-2.88856h-71.5057a3.97853,3.97853,0,0,0-3.96808,3.60846l-9.43991,90.6255L396.638,404.472a4.017,4.017,0,0,0-1.1115,2.85726,3.931,3.931,0,0,0,1.23115,2.79268,4.07916,4.07916,0,0,0,2.86134,1.1149,3.93066,3.93066,0,0,0,2.792-1.23115Zm107.49374,15.33663V386.911h73.087v11.325H576.24312a4.01125,4.01125,0,0,0,0,8.0225h19.71466v11.325H570.63125a3.95131,3.95131,0,0,0-2.8661,1.99866h-.0007L549.7711,451.571H502.31252l-16.215-35.66242H518.8599A4.01569,4.01569,0,0,0,522.87083,411.89762ZM475.09068,304.531h16.70574l23.05185,79.02784v24.28028H482.447l-7.3563-16.17416Zm-48.22949.04691h40.207v83.96057H418.1487Z"/></g></g></svg>