<svg xmlns="http://www.w3.org/2000/svg" viewBox="0 0 428.66384 183.63476"><defs><style>.cls-1{fill:#ed1f24;}</style></defs><title>auto</title><g id="Layer_2" data-name="Layer 2"><g id="Layer_1-2" data-name="Layer 1"><g id="Layer_2-2" data-name="Layer 2"><g id="Layer_1-2-2" data-name="Layer 1-2"><path class="cls-1" d="M363.20981,183.62556a37.47851,37.47851,0,0,1-36.18066-27.82129l-1.18506-4.459H125.20833l-1.18555,4.457a37.43428,37.43428,0,0,1-72.3584.002l-1.18506-4.459H8.826a5.15073,5.15073,0,0,1-4.89355-3.53516C3.45784,146.38335-7.49187,112.58647,9.3636,85.772,19.57845,69.52837,37.5887,59.64116,62.89436,56.3853A123.49927,123.49927,0,0,0,101.90169,44.627C161.84555,15.01469,219.49542,0,273.25128,0c30.89941,0,60.21289,4.95653,87.127,14.73146l1.44434.52441,27.23627-4.205a5.29579,5.29579,0,0,1,.80273-.0625,5.15358,5.15358,0,0,1,3.06738,9.28418l-6.832,5.12988,7.14307,4.686a68.6506,68.6506,0,0,1,30.71,51.02539l4.61377,47.31836a20.88753,20.88753,0,0,1-18.76355,22.81464q-1.01147.09856-2.02893.09845h-7.2002l-1.18506,4.459A37.47554,37.47554,0,0,1,363.20981,183.62556Zm0-64.56543a27.12842,27.12842,0,1,0,27.127,27.12985v-.00385A27.15944,27.15944,0,0,0,363.20981,119.06013Zm-275.36865,0a27.12842,27.12842,0,1,0,27.13086,27.126,27.12842,27.12842,0,0,0-27.13086-27.126Zm275.36865-10.30762a37.49057,37.49057,0,0,1,36.18307,27.8223l1.18555,4.457h7.19287A10.5526,10.5526,0,0,0,415.64,137.526a10.3822,10.3822,0,0,0,2.66162-8.10547l-4.61279-47.30957a58.50509,58.50509,0,0,0-30.81836-46.19336,204.99587,204.99587,0,0,0-21.89355-9.96094l-.50781-.19629-.53125-.10107a5.09225,5.09225,0,0,1-1.603-.603l-.459-.26758-.499-.18311c-25.90088-9.48486-54.19629-14.29395-84.10156-14.29395-52.17432,0-108.29687,14.6543-166.80811,43.55664A133.83678,133.83678,0,0,1,64.20981,66.60753c-22.04736,2.83594-37.53857,11.08984-46.043,24.53174-9.84131,15.5459-8.2627,34.83789-6.4458,44.95313l.88672,4.93945H50.47931l1.18506-4.459a37.43463,37.43463,0,0,1,72.35791,0l1.18457,4.459H325.84262l1.18555-4.458A37.48954,37.48954,0,0,1,363.20981,108.75252Z"/></g></g></g></g></svg>