<svg xmlns="http://www.w3.org/2000/svg" viewBox="0 0 353.99064 353.98633"><defs><style>.cls-1{fill:#ed1f24;}</style></defs><title>buss</title><g id="Layer_2" data-name="Layer 2"><g id="Layer_1-2" data-name="Layer 1"><path class="cls-1" d="M68.40172,100.5957A50.29785,50.29785,0,1,0,18.10386,50.29785,50.35477,50.35477,0,0,0,68.40172,100.5957Zm0-90.49609A40.19824,40.19824,0,1,1,28.203,50.29785,40.24391,40.24391,0,0,1,68.40172,10.09961Z"/><path class="cls-1" d="M267.49406,100.5957a50.29785,50.29785,0,1,0-50.29785-50.29785A50.35476,50.35476,0,0,0,267.49406,100.5957Zm0-90.49609a40.19824,40.19824,0,1,1-40.19873,40.19824A40.2439,40.2439,0,0,1,267.49406,10.09961Z"/><path class="cls-1" d="M339.891,229.86133h-5.67285l-16.65088-91.584a14.10185,14.10185,0,0,0-13.875-11.582h-72.397a14.16255,14.16255,0,0,0-8.80762,3.08789l-45.30811,36.24316-65.582-37.47852A14.15887,14.15887,0,0,0,104.6,126.69531H32.203a14.09972,14.09972,0,0,0-13.874,11.58105L.22935,237.82129a14.09039,14.09039,0,0,0,13.87451,16.61816H29.36314l6.88721,86.56543a14.171,14.171,0,0,0,14.05176,12.98145H86.50084a14.16406,14.16406,0,0,0,14.05182-12.98145l7.92383-99.63574,5.09521-49.81055,49.84619,16.88672a13.26214,13.26214,0,0,0,11.46875-1.30176l2.02-1.16309,2.00781,1.18359a13.78833,13.78833,0,0,0,13.07715.71094l30.53613-14.207,4.93018,48.19629L235.33683,341a14.17577,14.17577,0,0,0,14.05762,12.98633h36.19873a14.17377,14.17377,0,0,0,14.05762-12.98145l3.28564-41.31641H339.891a14.11575,14.11575,0,0,0,14.09961-14.09961V243.96094A14.11575,14.11575,0,0,0,339.891,229.86133ZM171.94767,200.67188l-67.125-22.74512L98.40373,240.6582l-8.2085,103.22852h-43.588l-7.915-99.5459H9.31089l19.55371-107.5459h34.4873v59.05762a5.04956,5.04956,0,1,0,10.09912,0V136.79492h32.211l66.28564,37.877ZM289.288,343.88672H245.69963L237.50041,240.748l-6.3667-62.22266-49.08643,22.84082v-26.2959L229.892,136.79492h32.55225v59.05762a5.04956,5.04956,0,1,0,10.09912,0V136.79492h34.4873l16.92383,93.06641h-41.981a14.11575,14.11575,0,0,0-14.09961,14.09961v41.62793a14.11575,14.11575,0,0,0,14.09961,14.09961h10.82813Zm54.603-54.29785H277.97355V239.96094H343.891Z"/></g></g></svg>