<svg xmlns="http://www.w3.org/2000/svg" viewBox="0 0 187.08662 79.68781"><defs><style>.cls-1{fill:#1d1d1b;}</style></defs><title>EIB</title><g id="Layer_2" data-name="Layer 2"><g id="Layer_1-2" data-name="Layer 1"><polygon class="cls-1" points="84.041 1.738 93.007 1.738 93.007 4.411 87.43 4.411 87.43 7.326 92.697 7.326 92.697 9.997 87.43 9.997 87.43 13.197 93.207 13.197 93.207 15.869 84.041 15.869 84.041 1.738 84.041 1.738"/><path class="cls-1" d="M105.08516,15.86945h-2.98947V13.9252h-.036a3.55352,3.55352,0,0,1-3.463,2.18634c-2.58749,0-3.62527-2.02505-3.62527-4.21085V5.322h3.28v5.10153c0,1.98309.61911,2.65067,1.51172,2.65067,1.34933,0,2.04181-1.03207,2.04181-3.29871V5.322h3.28027V15.86945Z"/><path class="cls-1" d="M113.775,8.2363a3.439,3.439,0,0,0-1.11172-.1207c-1.5307,0-2.38733,1.23389-2.38733,3.2998v4.454h-3.28027V5.322h2.98944v1.9426h.036a2.9625,2.9625,0,0,1,2.80658-2.18582,6.33287,6.33287,0,0,1,1.11145.12076L113.775,8.2363Z"/><path class="cls-1" d="M114.17528,10.60495a5.52217,5.52217,0,1,1,11.04434,0,5.52219,5.52219,0,0,1-11.04434,0Zm7.65442,0c0-1.578-.62054-2.97635-2.13226-2.97635-1.51224,0-2.13275,1.39832-2.13275,2.97635,0,1.55963.62051,2.95627,2.13275,2.95627,1.51172,0,2.13226-1.39664,2.13226-2.95627Z"/><path class="cls-1" d="M126.60155,5.322h3.02539v1.902h.03571a3.67811,3.67811,0,0,1,3.53677-2.14526c2.62347,0,4.06348,2.77316,4.06348,5.32434,0,3.11752-1.5137,5.7084-4.33731,5.7084a3.2074,3.2074,0,0,1-3.00638-1.72092h-.03714V20.12h-3.28052V5.322Zm5.28458,2.55035c-1.20245,0-2.00406,1.17465-2.00406,2.753,0,1.53925.91135,2.69269,2.00406,2.69269,1.2399,0,1.9874-1.15344,1.9874-2.8338,0-1.39694-.71152-2.61185-1.9874-2.61185Z"/><path class="cls-1" d="M141.57951,11.65744c.1817,1.459,1.18375,2.02454,2.78787,2.02454a5.65308,5.65308,0,0,0,2.897-.80905v2.57019a8.6485,8.6485,0,0,1-3.48038.66843,5.22326,5.22326,0,0,1-5.52048-5.5267c0-3.48151,2.1311-5.506,5.08307-5.506,3.51755,0,4.79343,2.77316,4.79343,5.91052v.66812ZM145.188,9.59268c0-1.21405-.51141-2.2056-1.82269-2.2056-1.18549,0-1.74982.99155-1.82184,2.2056Z"/><path class="cls-1" d="M155.93559,15.86945c-.01871-.5675-.07346-1.11487-.07346-1.66052h-.036a3.20843,3.20843,0,0,1-3.00641,1.90262c-1.87766,0-3.554-1.03265-3.554-3.31937,0-3.21957,3.1524-3.604,4.90164-3.604a8.69985,8.69985,0,0,1,1.5307.14117c-.01868-1.43716-.98331-1.82153-2.16852-1.82153a5.68705,5.68705,0,0,0-3.02539.78888l-.05469-2.46927a8.96344,8.96344,0,0,1,3.79132-.74866c2.42331,0,4.51843,1.15317,4.51843,4.373v3.92651a14.39789,14.39789,0,0,0,.1828,2.49109ZM153.67522,13.682a2.294,2.294,0,0,0,2.0228-2.48938c-.41922-.02042-.89264-.06067-1.38528-.06067-1.11148,0-1.98538.38437-1.98538,1.39664a1.19388,1.19388,0,0,0,1.34787,1.15341Z"/><path class="cls-1" d="M160.72325,5.322h2.98947v1.9426h.03595A3.55319,3.55319,0,0,1,167.2115,5.0788c2.58777,0,3.62579,2.02454,3.62579,4.21v6.58063h-3.28024V10.76767c0-1.98395-.61911-2.65207-1.51172-2.65207-1.34927,0-2.04208,1.03207-2.04208,3.2998v4.454h-3.28V5.322Z"/><polygon class="cls-1" points="83.986 25.309 87.376 25.309 87.376 39.439 83.986 39.439 83.986 25.309 83.986 25.309"/><path class="cls-1" d="M89.61623,28.89352h2.9877v1.94229h.03766a3.54976,3.54976,0,0,1,3.46115-2.18607c2.58774,0,3.62717,2.02451,3.62717,4.21057v6.58063H96.45V34.33914c0-1.98453-.62082-2.6521-1.51343-2.6521-1.34756,0-2.04034,1.03214-2.04034,3.29984v4.45407h-3.28V28.89352Z"/><polygon class="cls-1" points="100.257 28.894 103.773 28.894 105.742 36.404 105.778 36.404 107.765 28.894 111.026 28.894 107.51 39.441 103.773 39.441 100.257 28.894 100.257 28.894"/><path class="cls-1" d="M114.59425,35.22894c.1817,1.45847,1.18372,2.02451,2.7876,2.02451a5.65207,5.65207,0,0,0,2.89728-.80927v2.57019a8.64885,8.64885,0,0,1-3.48038.66812,5.22265,5.22265,0,0,1-5.52045-5.52615c0-3.48209,2.131-5.50659,5.08276-5.50659,3.51755,0,4.79367,2.77341,4.79367,5.91107v.66812Zm3.60852-2.06476c0-1.21405-.51138-2.20621-1.823-2.20621-1.18518,0-1.74985.99216-1.82156,2.20621Z"/><path class="cls-1" d="M122.46208,36.525a7.44949,7.44949,0,0,0,3.07986.72849c.67377,0,1.33026-.12073,1.33026-.84924,0-1.783-4.66522-.52753-4.66522-4.333,0-2.429,2.14978-3.42142,4.04645-3.42142a8.19641,8.19641,0,0,1,3.33295.60773l-.25452,2.53a4.93667,4.93667,0,0,0-2.55032-.70813c-.71152,0-1.51312.1423-1.51312.72849,0,1.63986,4.88406.34412,4.88406,4.3526,0,2.814-2.27789,3.52209-4.4277,3.52209a9.7218,9.7218,0,0,1-3.44437-.50543l.18167-2.6521Z"/><path class="cls-1" d="M130.69841,28.89352h1.931V26.5246l3.22522-1.11316v3.48209h2.29663V31.4433h-2.29663V35.331c0,1.27444.27359,1.92242,1.31192,1.92242a5.707,5.707,0,0,0,1.002-.14114l.10938,2.36862a14.21676,14.21676,0,0,1-2.05936.20157c-2.933,0-3.6445-1.43665-3.6445-3.94641V31.4433h-1.8757V28.89352Z"/><path class="cls-1" d="M139.49577,28.89352h2.98828v1.94229h.03711a3.55026,3.55026,0,0,1,3.4617-2.18607,2.9771,2.9771,0,0,1,2.9707,2.02451,3.6816,3.6816,0,0,1,3.37036-2.02451c2.73486,0,3.354,1.72089,3.354,4.57483v6.21637h-3.28024v-5.669c0-1.19394-.383-2.0849-1.31161-2.0849-1.16644,0-1.85922,1.03214-1.85922,3.29984v4.45407h-3.28v-5.669c0-1.19394-.38269-2.0849-1.31186-2.0849-1.16589,0-1.8587,1.03214-1.8587,3.29984v4.45407h-3.28052V28.89352Z"/><path class="cls-1" d="M160.35875,35.22894c.1828,1.45847,1.18546,2.02451,2.78787,2.02451a5.65541,5.65541,0,0,0,2.89871-.80927v2.57019a8.65687,8.65687,0,0,1-3.48209.66812,5.22356,5.22356,0,0,1-5.52048-5.52615c0-3.48209,2.13278-5.50659,5.0845-5.50659,3.51611,0,4.792,2.77341,4.792,5.91107v.66812Zm3.60849-2.06476c0-1.21405-.50964-2.20621-1.82263-2.20621-1.18378,0-1.7496.99216-1.82184,2.20621Z"/><path class="cls-1" d="M168.40944,28.89352h2.98938v1.94229h.036a3.55153,3.55153,0,0,1,3.4617-2.18607c2.58716,0,3.62692,2.02451,3.62692,4.21057v6.58063h-3.28024V34.33914c0-1.98453-.61911-2.6521-1.51343-2.6521-1.3476,0-2.03979,1.03214-2.03979,3.29984v4.45407h-3.28055V28.89352Z"/><path class="cls-1" d="M179.50539,28.89352H181.438V26.5246l3.22522-1.11316v3.48209h2.29526V31.4433h-2.29526V35.331c0,1.27444.27359,1.92242,1.31192,1.92242a5.72149,5.72149,0,0,0,1.002-.14114l.10941,2.36862a14.22949,14.22949,0,0,1-2.05908.20157c-2.93445,0-3.64423-1.43665-3.64423-3.94641V31.4433h-1.87793V28.89352Z"/><path class="cls-1" d="M83.99339,48.78284h5.849c2.36978,0,4.1366,1.15482,4.1366,3.5838a3.16615,3.16615,0,0,1-2.24051,3.299v.04025a2.9256,2.9256,0,0,1,2.56876,3.119c0,3.37915-2.67789,4.08893-4.95605,4.08893H83.99339v-14.131Zm3.38937,11.45877h1.002c1.23987,0,2.53308-.20328,2.53308-1.63986,0-1.53922-1.3306-1.68036-2.49677-1.68036H87.38277v3.32022Zm0-5.8717h.94736c1.11176,0,2.25949-.30246,2.25949-1.49756,0-1.296-1.093-1.41733-2.22324-1.41733h-.98361V54.3699Z"/><path class="cls-1" d="M102.28737,62.91379c-.01733-.56717-.072-1.11426-.072-1.65994h-.03745a3.20529,3.20529,0,0,1-3.00674,1.90207c-1.87622,0-3.55347-1.0321-3.55347-3.31882,0-3.21991,3.15326-3.604,4.90308-3.604a8.72994,8.72994,0,0,1,1.53043.1409c-.01871-1.43686-.98474-1.82123-2.16849-1.82123a5.68467,5.68467,0,0,0-3.02542.78888l-.05475-2.4693a8.95763,8.95763,0,0,1,3.78995-.74887c2.425,0,4.52011,1.15341,4.52011,4.373V60.423a14.356,14.356,0,0,0,.18115,2.49075Zm-2.25925-2.18692a2.29486,2.29486,0,0,0,2.0231-2.48969c-.41925-.02008-.89294-.06033-1.38532-.06033-1.11176,0-1.98563.38437-1.98563,1.39664a1.19415,1.19415,0,0,0,1.34784,1.15338Z"/><path class="cls-1" d="M107.20491,52.36664h2.98767V54.309h.03577a3.55376,3.55376,0,0,1,3.463-2.18549c2.58774,0,3.62552,2.0242,3.62552,4.21v6.58035H114.037V57.81256c0-1.98425-.61908-2.65262-1.51172-2.65262-1.3493,0-2.04041,1.03265-2.04041,3.299v4.4549h-3.27994V52.36664Z"/><polygon class="cls-1" points="119.358 47.73 122.638 47.73 122.638 56.8 122.673 56.8 125.408 52.367 128.997 52.367 125.699 57.205 129.27 62.914 125.299 62.914 122.673 57.69 122.638 57.69 122.638 62.914 119.358 62.914 119.358 47.73 119.358 47.73"/><path class="cls-1" d="M16.503,0H4.81947L0,70.68811,5.6591,70.334C13.252,56.338,17.65361,38.97723,17.858,20.37454,17.94444,12.47836,17.72987,6.02448,16.503,0Z"/><polygon class="cls-1" points="26.788 0.177 27.947 68.161 41.853 69.706 43.398 0.564 39.056 0.462 26.788 0.177 26.788 0.177"/><polygon class="cls-1" points="61.647 79.688 53.967 79.688 54.111 1.678 65.896 1.871 66.186 19.929 61.647 79.688 61.647 79.688"/></g></g></svg>