<svg xmlns="http://www.w3.org/2000/svg" viewBox="0 0 398.99559 280.51471"><defs><style>.cls-1{fill:#ed1f24;}</style></defs><title>Asset 1</title><g id="Layer_2" data-name="Layer 2"><g id="Layer_1-2" data-name="Layer 1"><g id="Layer_2-2" data-name="Layer 2"><g id="Layer_1-2-2" data-name="Layer 1-2"><path class="cls-1" d="M292.59281,203.11526A21.799,21.799,0,1,0,307.98148,209.5,21.799,21.799,0,0,0,292.59281,203.11526Zm0,33.85254a12.0791,12.0791,0,1,1,12.0791-12.0791A12.07909,12.07909,0,0,1,292.59281,236.9678Z"/><path class="cls-1" d="M398.48536,180.4053,373.09571,129.626a4.81912,4.81912,0,0,0-4.335-2.67969h-29.0058v-12.0791a4.85251,4.85251,0,0,0-4.84766-4.84668h-12.0791V81.01468a4.84055,4.84055,0,0,0-3.31348-4.59863L294.125,67.95316a4.84751,4.84751,0,0,0-6.37988,4.59961v37.4668H275.666a4.85168,4.85168,0,0,0-4.84668,4.84668v12.08011H246.66212V55.626A55.68969,55.68969,0,0,0,191.0351,0h-76.168a4.85336,4.85336,0,0,0-4.84766,4.84766l.00781,126.999a4.85647,4.85647,0,0,0,1.11621,3.05078l41.19238,49.42969v23.01953H136.64161V191.03616a4.83692,4.83692,0,0,0-4.30469-4.81445l-.86914-.09668-.34375-.80469a68.30629,68.30629,0,0,0-125.6084.001l-.34375.80469-.86914.09668A4.83528,4.83528,0,0,0,0,191.03717V233.3526a4.835,4.835,0,0,0,4.30273,4.81348l.86914.09668.34375.80469a68.25509,68.25509,0,0,0,23.57031,29.02539l3.88672,2.72754H4.84666a4.84717,4.84717,0,0,0,0,9.69434H343.37208a4.84717,4.84717,0,0,0,0-9.69434H324.20216l3.29785-2.666a55.36522,55.36522,0,0,0,18.81152-28.84473l.29785-1.11035h22.15137a4.81954,4.81954,0,0,0,4.33594-2.67969l25.38965-50.77832A4.86526,4.86526,0,0,0,398.48536,180.4053ZM297.44044,79.27835l15.69434,5.23145v25.51172H297.44044Zm-16.92578,40.4375h49.54688v24.15723H280.51466ZM119.71482,9.69536h71.32031A45.983,45.983,0,0,1,236.9668,55.626v71.32034H212.8086V55.626a21.79817,21.79817,0,0,0-21.77344-21.77344H119.71482Zm0,33.85254h71.32031A12.09315,12.09315,0,0,1,203.11424,55.627V126.9473H119.71482ZM16.93458,183.96585a58.62989,58.62989,0,0,1,102.76953,0l1.22266,2.22266H15.71192Zm-7.24023,11.918h117.252v32.62109H9.69436Zm7.24023,44.53809-1.22266-2.22266H120.92774l-1.22266,2.22266a58.62983,58.62983,0,0,1-102.77051,0ZM103.667,270.82135l3.8877-2.72852A68.23945,68.23945,0,0,0,131.124,239.06744l.34375-.80469.86914-.09668a4.836,4.836,0,0,0,4.30469-4.81348V217.042h15.69434v33.23734a4.85168,4.85168,0,0,0,4.84668,4.84668h84.63086a4.80149,4.80149,0,0,0,2.1875-.52539l1.20117-.6084.73438,1.12891a55.963,55.963,0,0,0,11.749,13.03418l3.29785,2.666Zm188.92578-.001a45.93115,45.93115,0,1,1,45.93066-45.93164v.001a45.98278,45.98278,0,0,1-45.93063,45.93066Zm-45.93066-77.541V178.958h14.32129l-3.29785,2.667a56.14974,56.14974,0,0,0-8.35645,8.35645Zm119.10352,35.22559H348.11231l.06445-1.85645c.02051-.585.042-1.16992.042-1.75977a55.68945,55.68945,0,0,0-55.626-55.626h-50.7793a4.85168,4.85168,0,0,0-4.84668,4.84668v71.32031H162.03028V182.57327a4.849,4.849,0,0,0-1.123-3.10254l-35.68948-42.83008H270.82032v12.0791a4.85251,4.85251,0,0,0,4.84668,4.84766h59.24219a4.85335,4.85335,0,0,0,4.84766-4.84766v-12.0791h26.00879l22.96582,45.93164Z"/></g></g></g></g></svg>