<svg id="Layer_1" data-name="Layer 1" xmlns="http://www.w3.org/2000/svg" xmlns:xlink="http://www.w3.org/1999/xlink" viewBox="0 0 994 549"><defs><style>.cls-1,.cls-15,.cls-5,.cls-6,.cls-7{fill:none;}.cls-1{stroke:#f2f2f2;}.cls-1,.cls-13,.cls-15,.cls-5,.cls-6,.cls-7,.cls-9{stroke-miterlimit:10;}.cls-2{opacity:0.2;fill:url(#linear-gradient);}.cls-3{opacity:0.55;fill:url(#linear-gradient-2);}.cls-13,.cls-4,.cls-9{fill:#fff;}.cls-5,.cls-9{stroke:#e2bac5;}.cls-13,.cls-6{stroke:#d3d3d3;}.cls-7{stroke:#d1d1d1;}.cls-11,.cls-8{font-size:16px;}.cls-8{fill:#9e9e9e;}.cls-11,.cls-16,.cls-8{font-family:Helvetica, Helvetica;}.cls-10{fill:#e60028;}.cls-11,.cls-14,.cls-16{fill:#686b6e;}.cls-12{letter-spacing:-0.07373em;}.cls-15{stroke:#e5e5e5;stroke-width:2px;}.cls-16{font-size:14px;}</style><linearGradient id="linear-gradient" x1="476.51646" y1="470.5" x2="476.51646" y2="277" gradientUnits="userSpaceOnUse"><stop offset="0" stop-color="#fff"/><stop offset="1" stop-color="red"/></linearGradient><linearGradient id="linear-gradient-2" x1="494.33512" y1="327.77359" x2="462.49356" y2="163.96296" gradientUnits="userSpaceOnUse"><stop offset="0.14654" stop-color="#fff"/><stop offset="1" stop-color="#b3b3b3"/></linearGradient></defs><title>Grafikoni</title><line class="cls-1" x1="21.5" y1="195.10156" x2="943" y2="195.10156"/><line class="cls-1" x1="21.5" y1="148.60156" x2="943" y2="148.60156"/><line class="cls-1" x1="21.5" y1="102.10156" x2="943" y2="102.10156"/><line class="cls-1" x1="21.5" y1="427.60156" x2="943" y2="427.60156"/><line class="cls-1" x1="21.5" y1="381.10156" x2="943" y2="381.10156"/><line class="cls-1" x1="21.5" y1="334.60156" x2="943" y2="334.60156"/><line class="cls-1" x1="21.5" y1="288.10156" x2="943" y2="288.10156"/><line class="cls-1" x1="21.5" y1="241.60156" x2="943" y2="241.60156"/><polygon class="cls-2" points="843 277 668 323 480 358 298 389 110.033 405 110.033 470.5 843 470.5 843 277"/><polygon class="cls-3" points="843 90 667 149 480 220 298.241 272 111.061 310 111.061 387.5 843 260 843 90"/><rect class="cls-4" x="47" y="102" width="256" height="102"/><polyline class="cls-5" points="109.156 405.138 298.392 388.682 480.5 357.5 668.5 322.5"/><polyline class="cls-6" points="112.241 309.491 299.421 272.467 480.5 220.5 667.5 149.5 853.5 86.5"/><line class="cls-7" x1="21.5003" y1="474.00038" x2="21.5003" y2="479.53911"/><line class="cls-7" x1="942.5003" y1="474.00038" x2="942.5003" y2="479.53911"/><line class="cls-7" x1="205.7003" y1="474.00038" x2="205.7003" y2="479.53911"/><line class="cls-7" x1="574.1003" y1="474.00038" x2="574.1003" y2="479.53911"/><line class="cls-7" x1="389.9003" y1="474.00038" x2="389.9003" y2="479.53911"/><line class="cls-7" x1="758.3003" y1="474.00038" x2="758.3003" y2="479.53911"/><text class="cls-8" transform="translate(88 508)">2013</text><circle class="cls-9" cx="110.4641" cy="404.95089" r="7.28739"/><circle class="cls-10" cx="110.4641" cy="404.76395" r="3.91016"/><text class="cls-11" transform="translate(118 393)">967</text><circle class="cls-9" cx="298.13077" cy="388.95089" r="7.28739"/><circle class="cls-10" cx="298.13077" cy="388.76395" r="3.91016"/><text class="cls-11" transform="translate(305 372)"><tspan class="cls-12">1</tspan><tspan x="7.71875" y="0">139</tspan></text><text class="cls-8" transform="translate(272.5 508)">2014</text><text class="cls-8" transform="translate(459.25 508)">2015</text><text class="cls-8" transform="translate(646 508)">2016</text><text class="cls-8" transform="translate(835 508)">2017</text><circle class="cls-9" cx="480.4641" cy="357.95089" r="7.28739"/><circle class="cls-10" cx="480.4641" cy="357.76395" r="3.91016"/><text class="cls-11" transform="translate(488 339)">1792</text><circle class="cls-13" cx="110.4641" cy="309.95089" r="7.28739"/><circle class="cls-14" cx="110.4641" cy="309.95089" r="3.91016"/><text class="cls-11" transform="translate(118 293)">2300</text><circle class="cls-13" cx="298.13077" cy="271.95089" r="7.28739"/><circle class="cls-14" cx="298.13077" cy="271.95089" r="3.91016"/><text class="cls-11" transform="translate(294 249)">2789</text><circle class="cls-13" cx="480.4641" cy="220.95089" r="7.28739"/><circle class="cls-14" cx="480.4641" cy="220.95089" r="3.91016"/><text class="cls-11" transform="translate(466 196)">3866</text><circle class="cls-13" cx="667.0929" cy="149.77326" r="9.9071"/><circle class="cls-14" cx="667.0929" cy="149.77326" r="5.3158"/><text class="cls-11" transform="translate(637 126)">5144</text><line class="cls-15" x1="21.5" y1="474.10156" x2="943" y2="474.10156"/><circle class="cls-9" cx="113.15123" cy="165.65342" r="7.28739"/><circle class="cls-10" cx="113.15123" cy="165.65342" r="3.91016"/><circle class="cls-13" cx="113.15123" cy="132.95089" r="7.28739"/><circle class="cls-14" cx="113.15123" cy="132.95089" r="3.91016"/><text class="cls-16" transform="translate(134 138)">NB of active contract</text><text class="cls-16" transform="translate(134 170.29745)">NB of new contract</text><circle class="cls-13" cx="844.0929" cy="86.77326" r="9.9071"/><circle class="cls-14" cx="844.0929" cy="86.77326" r="5.3158"/><text class="cls-11" transform="translate(814 63)">7007</text><line class="cls-5" x1="668.5" y1="322.5" x2="843.5" y2="277.5"/><circle class="cls-9" cx="668.0929" cy="322.77326" r="9.9071"/><circle class="cls-10" cx="668.0929" cy="322.77326" r="5.3158"/><text class="cls-11" transform="translate(629 307)">2331</text><circle class="cls-9" cx="843.0929" cy="277.77326" r="9.9071"/><circle class="cls-10" cx="843.0929" cy="277.77326" r="5.3158"/><text class="cls-11" transform="translate(804 262)">3212</text></svg>