<svg id="Layer_1" data-name="Layer 1" xmlns="http://www.w3.org/2000/svg" xmlns:xlink="http://www.w3.org/1999/xlink" viewBox="0 0 994 549"><defs><style>.cls-1,.cls-5,.cls-8{fill:none;}.cls-1{stroke:#f2f2f2;}.cls-1,.cls-11,.cls-15,.cls-16,.cls-5,.cls-8,.cls-9{stroke-miterlimit:10;}.cls-2{opacity:0.55;fill:url(#linear-gradient);}.cls-3{opacity:0.2;fill:url(#linear-gradient-2);}.cls-11,.cls-15,.cls-16,.cls-4,.cls-9{fill:#fff;}.cls-5{stroke:#d1d1d1;}.cls-14,.cls-6{font-size:16px;}.cls-6,.cls-7{fill:#9e9e9e;}.cls-13,.cls-14,.cls-6,.cls-7{font-family:Helvetica, Helvetica;}.cls-13,.cls-7{font-size:14px;}.cls-8{stroke:#e5e5e5;stroke-width:2px;}.cls-16,.cls-9{stroke:#e2bac5;}.cls-10{fill:#e60028;}.cls-11,.cls-15{stroke:#d3d3d3;}.cls-12,.cls-13,.cls-14{fill:#686b6e;}.cls-15,.cls-16{stroke-width:3px;}</style><linearGradient id="linear-gradient" x1="485.31486" y1="413.58315" x2="450.47644" y2="234.35505" gradientUnits="userSpaceOnUse"><stop offset="0.14654" stop-color="#fff"/><stop offset="1" stop-color="#b3b3b3"/></linearGradient><linearGradient id="linear-gradient-2" x1="485.5" y1="474" x2="485.5" y2="246" gradientUnits="userSpaceOnUse"><stop offset="0" stop-color="#fff"/><stop offset="1" stop-color="red"/></linearGradient></defs><title>Grafikoni</title><line class="cls-1" x1="21.5" y1="195.10156" x2="923" y2="195.10156"/><line class="cls-1" x1="21.5" y1="148.60156" x2="923" y2="148.60156"/><line class="cls-1" x1="21.5" y1="102.10156" x2="923" y2="102.10156"/><line class="cls-1" x1="21.5" y1="427.60156" x2="923" y2="427.60156"/><line class="cls-1" x1="21.5" y1="381.10156" x2="923" y2="381.10156"/><line class="cls-1" x1="21.5" y1="334.60156" x2="923" y2="334.60156"/><line class="cls-1" x1="21.5" y1="288.10156" x2="923" y2="288.10156"/><line class="cls-1" x1="21.5" y1="241.60156" x2="923" y2="241.60156"/><polygon class="cls-2" points="649 233 466 331 277 380 96 402 96 453 648 372 833 346 833 160 649 233"/><polygon class="cls-3" points="668 286 486 407 297 457 116 457 116 474 668 474 853 473 855 246 668 286"/><rect class="cls-4" x="47" y="102" width="256" height="102"/><line class="cls-5" x1="21.5003" y1="474.00038" x2="21.5003" y2="479.53911"/><line class="cls-5" x1="922.5003" y1="474.00038" x2="922.5003" y2="479.53911"/><line class="cls-5" x1="205.7003" y1="474.00038" x2="205.7003" y2="479.53911"/><line class="cls-5" x1="574.1003" y1="474.00038" x2="574.1003" y2="479.53911"/><line class="cls-5" x1="389.9003" y1="474.00038" x2="389.9003" y2="479.53911"/><line class="cls-5" x1="758.3003" y1="474.00038" x2="758.3003" y2="479.53911"/><text class="cls-6" transform="translate(88 508)">2013</text><text class="cls-6" transform="translate(935 532)">10M</text><text class="cls-6" transform="translate(935 441)">30M</text><text class="cls-6" transform="translate(935 349)">50M</text><text class="cls-6" transform="translate(935 253)">70M</text><text class="cls-6" transform="translate(926.10156 160)">100M</text><text class="cls-6" transform="translate(274.75 508)">2014</text><text class="cls-6" transform="translate(461.5 508)">2015</text><text class="cls-6" transform="translate(648.25 508)">2016</text><text class="cls-6" transform="translate(835 508)">2017</text><text class="cls-7" transform="translate(958.42334 115.13477) rotate(-90)">EUR</text><line class="cls-8" x1="21.5" y1="474.10156" x2="923" y2="474.10156"/><circle class="cls-9" cx="113.15123" cy="165.65342" r="7.28739"/><circle class="cls-10" cx="113.15123" cy="165.65342" r="3.91016"/><circle class="cls-11" cx="113.15123" cy="132.95089" r="7.28739"/><circle class="cls-12" cx="113.15123" cy="132.95089" r="3.91016"/><text class="cls-13" transform="translate(134 138)">Outstanding</text><text class="cls-13" transform="translate(134 170.29745)">Production</text><circle class="cls-11" cx="96.15123" cy="400.95089" r="7.28739"/><circle class="cls-12" cx="96.15123" cy="400.95089" r="3.91016"/><text class="cls-14" transform="translate(103 393)">38.32</text><line class="cls-15" x1="96" y1="408" x2="96" y2="473"/><line class="cls-16" x1="116.32561" y1="465.5" x2="116.32561" y2="473"/><text class="cls-14" transform="translate(129.5 455.5)">23.20</text><circle class="cls-9" cx="116.32561" cy="458.95089" r="7.28739"/><circle class="cls-10" cx="116.32561" cy="458.95089" r="3.91016"/><circle class="cls-11" cx="277.15123" cy="380.95089" r="7.28739"/><circle class="cls-12" cx="277.15123" cy="380.95089" r="3.91016"/><text class="cls-14" transform="translate(284 373)">41.31</text><line class="cls-15" x1="277" y1="388" x2="277" y2="473"/><line class="cls-16" x1="297.32561" y1="465.5" x2="297.32561" y2="473"/><text class="cls-14" transform="translate(310.5 455.5)">25.41</text><circle class="cls-9" cx="297.32561" cy="458.95089" r="7.28739"/><circle class="cls-10" cx="297.32561" cy="458.95089" r="3.91016"/><circle class="cls-11" cx="466.15123" cy="330.95089" r="7.28739"/><circle class="cls-12" cx="466.15123" cy="330.95089" r="3.91016"/><text class="cls-14" transform="translate(473 323)">52.51</text><line class="cls-15" x1="466" y1="338" x2="466" y2="473"/><line class="cls-16" x1="486.32561" y1="415.5" x2="486.32561" y2="473"/><text class="cls-14" transform="translate(499.5 405.5)">37.28</text><circle class="cls-9" cx="486.32561" cy="408.95089" r="7.28739"/><circle class="cls-10" cx="486.32561" cy="408.95089" r="3.91016"/><circle class="cls-11" cx="648.15123" cy="232.95089" r="7.28739"/><circle class="cls-12" cx="648.15123" cy="232.95089" r="3.91016"/><text class="cls-14" transform="translate(655 225)">75.70</text><polyline class="cls-15" points="648 240 648 267.783 648 473"/><line class="cls-16" x1="668.32561" y1="294.5" x2="668.32561" y2="473"/><text class="cls-14" transform="translate(681.5 284.5)">60.29</text><circle class="cls-9" cx="668.32561" cy="287.95089" r="7.28739"/><circle class="cls-10" cx="668.32561" cy="287.95089" r="3.91016"/><circle class="cls-11" cx="833.15123" cy="156.95089" r="7.28739"/><circle class="cls-12" cx="833.15123" cy="156.95089" r="3.91016"/><text class="cls-14" transform="translate(840 149)">104.22</text><line class="cls-15" x1="833" y1="164" x2="833" y2="473"/><line class="cls-16" x1="853.32561" y1="252.5" x2="853.32561" y2="473"/><text class="cls-14" transform="translate(866.5 242.5)">74.83</text><circle class="cls-9" cx="853.32561" cy="245.95089" r="7.28739"/><circle class="cls-10" cx="853.32561" cy="245.95089" r="3.91016"/></svg>