<svg xmlns="http://www.w3.org/2000/svg" viewBox="0 0 326.54199 313.69774"><defs><style>.cls-1{fill:#ed1f24;}</style></defs><title>indus</title><g id="Layer_2" data-name="Layer 2"><g id="Layer_1-2" data-name="Layer 1"><g id="Layer_2-2" data-name="Layer 2"><g id="Layer_1-2-2" data-name="Layer 1-2"><path class="cls-1" d="M259.07422,49.41359a21.32937,21.32937,0,1,0-24.62109,17.42773,21.74212,21.74212,0,0,0,3.65039.31055A21.34562,21.34562,0,0,0,259.07422,49.41359Zm-9.78906-1.67676a11.39772,11.39772,0,1,1-9.3125-13.15627,11.40586,11.40586,0,0,1,9.3125,13.15627Z"/><path class="cls-1" d="M107.39941,70.96339a23.58984,23.58984,0,1,0,23.58984,23.58984A23.58983,23.58983,0,0,0,107.39941,70.96339Zm0,37.249a13.65918,13.65918,0,1,1,13.65918-13.65918v0a13.67522,13.67522,0,0,1-13.65918,13.65918Z"/><path class="cls-1" d="M326.542,271.48292a4.97088,4.97088,0,0,0-4.96484-4.96484H270.66992V215.61085a4.97088,4.97088,0,0,0-4.96484-4.96484h-37.249a4.97108,4.97108,0,0,0-4.96582,4.96484v50.90723H140.2998V134.19l1.18262-1.04492c.77344-.68359,1.4668-1.3291,2.11914-1.97168l.53809-.53125.20313-.0752,81.99609-30.207,2.2373,41.02441a4.96924,4.96924,0,0,0,4.959,4.69531h8.5791v32.2822a4.96582,4.96582,0,0,0,9.93164,0V146.0796h9.708a4.95189,4.95189,0,0,0,4.96-4.75293l2.56738-60.52539.98926-.96875A46.56767,46.56767,0,0,0,221.585,2.8716l-109.58887,40.374-.75684-.05664c-1.4834-.1084-2.7041-.15918-3.84082-.15918A51.58384,51.58384,0,0,0,55.873,94.55522a50.86365,50.86365,0,0,0,5.52051,23.15723l.61816,1.22363-.37793,1.31738L19.84473,266.51808H4.96582A4.97107,4.97107,0,0,0,0,271.48292v37.249a4.97129,4.97129,0,0,0,4.96582,4.96582H321.57715a4.97108,4.97108,0,0,0,4.96484-4.96582ZM233.4209,220.57667h27.31738v45.94141H233.4209ZM256.99414,136.148H238.23828L236.08984,96.7671l22.93555-8.46191ZM225.01855,12.19a36.62907,36.62907,0,1,1,25.34277,68.735l-.01953.0072L154.68555,116.1714l2.03613-6.72754a51.45109,51.45109,0,0,0-21.47949-58.209l-5.89258-3.80078ZM107.39941,52.95851A41.59473,41.59473,0,1,1,65.80469,94.55324h0A41.64144,41.64144,0,0,1,107.39941,52.95851ZM69.291,129.60988l4.15527,3.65039a51.3824,51.3824,0,0,0,52.18166,9.47852l4.74219-1.80078V266.51808H30.17285ZM316.61133,303.76515H9.93164V276.44874H316.61133Z"/><path class="cls-1" d="M226.94043,186.065a2.19441,2.19441,0,0,0,3.02832.002l.04395-.04492a2.14086,2.14086,0,0,0-.04-2.98633l-14.62207-14.623a2.194,2.194,0,0,0-3.03027-.001,2.1419,2.1419,0,0,0-.00314,3.02911l.00113.00116Z"/><path class="cls-1" d="M219.373,194.811H204.752a2.14307,2.14307,0,0,0-.00787,4.28613h14.629a2.14307,2.14307,0,0,0,0-4.28613Z"/><path class="cls-1" d="M263.56055,184.54933a2.09632,2.09632,0,0,0,2.07877,2.11374q.03236.00027.06479-.00046h.001a2.14567,2.14567,0,0,0,1.51367-.59668l14.62207-14.62207a2.14342,2.14342,0,0,0-3.03027-3.03223l-14.62109,14.62207A2.12991,2.12991,0,0,0,263.56055,184.54933Z"/><path class="cls-1" d="M289.40723,194.811H274.78613a2.14307,2.14307,0,0,0,0,4.28613h14.62109a2.14307,2.14307,0,0,0,.00787-4.28613Z"/></g></g></g></g></svg>