<svg xmlns="http://www.w3.org/2000/svg" viewBox="0 0 297.41034 292.45349"><defs><style>.cls-1{fill:#ed1f24;}</style></defs><title>komp</title><g id="Layer_2" data-name="Layer 2"><g id="Layer_1-2" data-name="Layer 1"><path class="cls-1" d="M52.04681,29.741A22.30576,22.30576,0,1,0,74.3526,52.04681,22.30578,22.30578,0,0,0,52.04681,29.741Zm0,34.69788A12.39209,12.39209,0,1,1,64.4389,52.04681,12.39209,12.39209,0,0,1,52.04681,64.4389Z"/><circle class="cls-1" cx="247.84192" cy="44.61157" r="4.95685"/><circle class="cls-1" cx="228.01457" cy="44.61157" r="4.95683"/><circle class="cls-1" cx="257.75562" cy="59.4821" r="4.95683"/><circle class="cls-1" cx="237.92824" cy="59.4821" r="4.95682"/><circle class="cls-1" cx="208.18721" cy="44.61157" r="4.95683"/><circle class="cls-1" cx="218.10089" cy="59.4821" r="4.95683"/><circle class="cls-1" cx="188.35986" cy="44.61157" r="4.95685"/><circle class="cls-1" cx="198.27354" cy="59.4821" r="4.95682"/><circle class="cls-1" cx="168.53252" cy="44.61157" r="4.95683"/><circle class="cls-1" cx="178.44618" cy="59.4821" r="4.95682"/><path class="cls-1" d="M297.41034,81.2525V22.84113A22.86618,22.86618,0,0,0,274.56921,0H22.84113A22.86614,22.86614,0,0,0,0,22.84113V81.24756A22.70706,22.70706,0,0,0,8.80829,99.13184,22.7317,22.7317,0,0,0,0,117.02106v58.40637a22.70706,22.70706,0,0,0,8.80829,17.88428A22.73157,22.73157,0,0,0,0,211.201v58.40637a22.86719,22.86719,0,0,0,22.84113,22.84607H274.56427a22.86618,22.86618,0,0,0,22.84113-22.84113V211.201a22.70706,22.70706,0,0,0-8.80829-17.88428,22.7042,22.7042,0,0,0,8.81323-17.88428V117.02106a22.70706,22.70706,0,0,0-8.80829-17.88428A22.71431,22.71431,0,0,0,297.41034,81.2525Zm-9.9137,188.35492a12.94243,12.94243,0,0,1-12.92743,12.92743H22.84113A12.935,12.935,0,0,1,9.9137,269.61237V211.201a12.94244,12.94244,0,0,1,12.92743-12.92749H274.56427A12.94353,12.94353,0,0,1,287.49664,211.201Zm0-152.5863v58.40637A12.94252,12.94252,0,0,1,274.56921,188.355H22.84113A12.935,12.935,0,0,1,9.9137,175.43243V117.02106a12.94235,12.94235,0,0,1,12.92743-12.92743H274.56427a12.94348,12.94348,0,0,1,12.93237,12.92743Zm0-35.77356A12.9424,12.9424,0,0,1,274.56921,94.175H22.84113v.00488A12.94235,12.94235,0,0,1,9.9137,81.2525V22.84113A12.94243,12.94243,0,0,1,22.84113,9.9137H274.56427a12.94348,12.94348,0,0,1,12.93237,12.92743Z"/><path class="cls-1" d="M52.04675,123.921a22.30579,22.30579,0,1,0,22.30579,22.30579A22.3058,22.3058,0,0,0,52.04675,123.921Zm.00006,34.69788A12.39209,12.39209,0,1,1,64.4389,146.22675,12.392,12.392,0,0,1,52.04681,158.61884Z"/><circle class="cls-1" cx="247.84192" cy="138.7915" r="4.95685"/><circle class="cls-1" cx="228.01457" cy="138.7915" r="4.95683"/><circle class="cls-1" cx="257.75562" cy="153.662" r="4.95683"/><circle class="cls-1" cx="237.92824" cy="153.662" r="4.95682"/><circle class="cls-1" cx="208.18721" cy="138.7915" r="4.95683"/><circle class="cls-1" cx="218.10089" cy="153.662" r="4.95683"/><circle class="cls-1" cx="188.35986" cy="138.7915" r="4.95685"/><circle class="cls-1" cx="198.27354" cy="153.662" r="4.95682"/><circle class="cls-1" cx="168.53252" cy="138.7915" r="4.95683"/><circle class="cls-1" cx="178.44618" cy="153.662" r="4.95682"/><path class="cls-1" d="M52.04675,218.10089a22.30579,22.30579,0,1,0,22.30579,22.30579A22.3058,22.3058,0,0,0,52.04675,218.10089Zm.00006,34.69788A12.39209,12.39209,0,1,1,64.4389,240.40668,12.392,12.392,0,0,1,52.04681,252.79877Z"/><circle class="cls-1" cx="247.84192" cy="232.97144" r="4.95685"/><circle class="cls-1" cx="228.01457" cy="232.97144" r="4.95683"/><circle class="cls-1" cx="257.75562" cy="247.84193" r="4.95683"/><circle class="cls-1" cx="237.92824" cy="247.84193" r="4.95682"/><circle class="cls-1" cx="208.18721" cy="232.97144" r="4.95683"/><circle class="cls-1" cx="218.10089" cy="247.84193" r="4.95683"/><circle class="cls-1" cx="188.35986" cy="232.97144" r="4.95685"/><circle class="cls-1" cx="198.27354" cy="247.84193" r="4.95682"/><circle class="cls-1" cx="168.53252" cy="232.97144" r="4.95683"/><circle class="cls-1" cx="178.44618" cy="247.84193" r="4.95682"/></g></g></svg>