<svg xmlns="http://www.w3.org/2000/svg" viewBox="0 0 405.25411 268.84949"><defs><style>.cls-1{fill:#ed1f24;}</style></defs><title>komer</title><g id="Layer_2" data-name="Layer 2"><g id="Layer_1-2" data-name="Layer 1"><g id="Layer_2-2" data-name="Layer 2"><g id="Layer_1-2-2" data-name="Layer 1-2"><path class="cls-1" d="M405.14911,208.57254c-1.62891-8.42551-16.01184-82.62073-19.47491-93.18021-8.34088-25.45068-28.476-54.50909-53.86252-77.73016C305.63928,13.72733,278.75516,0,258.05316,0H46.86574A15.8657,15.8657,0,0,0,31.14017,15.96719v35.8577h-18.223V63.175H31.13574V95.06851H.85374A5.49278,5.49278,0,0,0,0,95.14191v11.19882a5.49279,5.49279,0,0,0,.85374.07339h30.282V209.66364a15.86833,15.86833,0,0,0,15.73,15.968H74.62311l.5282,3.56317c3.35,22.607,22.86549,39.65469,45.39484,39.65469,22.52893,0,42.0441-17.04767,45.39444-39.65469l.5282-3.56317h96.16266l.5282,3.56317c3.35117,22.607,22.8663,39.65469,45.39444,39.65469,22.533,0,42.04892-17.04767,45.39526-39.65387l.5274-3.564H389.5238a15.86831,15.86831,0,0,0,15.73-15.968A5.82915,5.82915,0,0,0,405.14911,208.57254ZM265.86591,11.83574l5.1918,1.41652C308.377,23.43279,358.3642,73.201,373.91547,115.65967l2.06769,5.64563H265.86591ZM120.54617,257.49817c-19.15282,0-34.73506-15.82083-34.73506-35.26739,0-19.44818,15.58224-35.27023,34.73506-35.27023s34.73465,15.82205,34.73465,35.27023C155.28082,241.67734,139.699,257.49817,120.54617,257.49817Zm188.012,0c-19.15283,0-34.73547-15.82083-34.73547-35.26739,0-19.44818,15.58264-35.27023,34.73547-35.27023,19.15039,0,34.73065,15.82205,34.73065,35.27023-.00006,19.44656-15.58029,35.26739-34.73071,35.26739Zm84.32654-44.96634a4.73787,4.73787,0,0,1-3.83911,1.753h-35.143l-.77136-3.18665a45.739,45.739,0,0,0-89.14954,0l-.77136,3.18665H165.89471l-.77216-3.18582a45.74156,45.74156,0,0,0-89.154,0l-.77177,3.18582H46.86574a4.59172,4.59172,0,0,1-4.55128-4.62115V106.41409H164.626V95.06848H42.31447V63.175h58.8949c.06909,0,.13618-.008.20467-.01053V51.83987c-.0685-.00256-.13557-.01053-.20467-.01053H42.31447V15.97125a4.59173,4.59173,0,0,1,4.55128-4.62115H254.69238V126.97791a5.63752,5.63752,0,0,0,5.58713,5.67426l118.11429.00409.71014,3.28925c2.09509,9.701,4.54846,22.17123,7.14514,35.37366,2.51782,12.80139,5.12177,26.03857,7.5083,37.27667a4.70221,4.70221,0,0,1-.87274,3.936Z"/></g></g></g></g></svg>