<svg xmlns="http://www.w3.org/2000/svg" viewBox="0 0 313.28173 366.41261"><defs><style>.cls-1{fill:#ed1f24;}</style></defs><title>med</title><g id="Layer_2" data-name="Layer 2"><g id="Layer_1-2" data-name="Layer 1"><g id="Layer_2-2" data-name="Layer 2"><g id="Layer_1-2-2" data-name="Layer 1-2"><path class="cls-1" d="M265.11665,366.4126a48.127,48.127,0,1,1,23.01367-90.38867L290.06,277.0752l.86523-2.01953c5.51074-12.8584,3.04883-28.20508-5.9873-37.32129a31.51969,31.51969,0,0,0-44.57413-.35992q-.23891.23506-.47275.47516l-83.32324,74.19434-.0459.04639c-15.376,15.60449-33.47754,23.85254-52.34766,23.85254-18.15918,0-35.51172-7.87354-50.18066-22.769C37.768,296.72318,30.43892,251.26761,30.893,230.44287l.01953-.854-.68164-.68115a103.66511,103.66511,0,0,1,0-146.34033L102.184,10.61329a36.33941,36.33941,0,0,1,51.33105,0l1.62012,1.62207,1.36426-.90527A21.26683,21.26683,0,1,1,148.1,22.85645l.34766-1.14746L145.434,18.69434a25.41925,25.41925,0,0,0-35.0918,0L38.38911,90.64844A91.646,91.646,0,0,0,15.13423,130.04l-.20866.70932s2.38152,2.30338,2.80437,2.72623l100.6084,108.18848c.61816.73438,3.5625,4.08057,3.5625,4.08057a90.7968,90.7968,0,0,0,46.59375-25.07715L240.4438,148.7183a24.84123,24.84123,0,0,0,0-35.09131l-3.0293-3.03027-1.16309.37354a19.77066,19.77066,0,0,1-6.042.98779,21.20386,21.20386,0,1,1,17.68262-9.40527l-.917,1.36523,1.626,1.62744a36.4045,36.4045,0,0,1,.001,51.33105l-71.95319,71.95358A103.45968,103.45968,0,0,1,46.09517,241.80957l-3.45508-2.29932.35352,4.13525c1.95508,22.811,9.18262,51.23535,19.21484,61.42529,12.47949,12.64063,26.99023,19.3208,41.96582,19.3208,15.74414,0,31.12207-7.17285,44.47461-20.74414l83.24707-74.19531.04395-.04395a42.54853,42.54853,0,0,1,30.45508-12.6377h.23242a43.25707,43.25707,0,0,1,30.5332,12.71533c12.86914,12.94092,15.81641,34.7334,7.19434,52.2207l-1.0127,2.522.67871.85986a48.14319,48.14319,0,0,1-34.9043,81.32419Zm.40234-84.39648a36.81643,36.81643,0,1,0,25.98828,62.834l.24512-.24414a36.818,36.818,0,0,0-26.2334-62.58984ZM11.8891,149.023c-.17187,2.48438-.31445,4.728-.31445,7.02393a91.95316,91.95316,0,0,0,91.82619,91.67142h4.584l-3.041-3.36035L12.20851,144.4141ZM230.09419,81.37745A9.71409,9.71409,0,0,0,223.225,97.96387a9.86937,9.86937,0,0,0,6.92676,2.84863,9.45588,9.45588,0,0,0,6.8291-2.8667,9.71806,9.71806,0,0,0-6.88672-16.56836ZM168.23677,19.501a9.46085,9.46085,0,0,0-6.86816,2.86865A9.71346,9.71346,0,0,0,175.144,36.06787a9.85835,9.85835,0,0,0,2.8291-6.82959,9.74817,9.74817,0,0,0-9.73636-9.7373Z"/></g></g></g></g></svg>