<svg xmlns="http://www.w3.org/2000/svg" viewBox="0 0 2768.33727 2181.74679"><defs><style>.cls-1{fill:#727272;}.cls-2{fill:#e3e5e5;}.cls-3{fill:#ed1a3b;}</style></defs><title>ok</title><g id="Layer_2" data-name="Layer 2"><g id="Layer"><ellipse class="cls-1" cx="1463.37847" cy="2117.65597" rx="272.1462" ry="64.09085"/><ellipse class="cls-1" cx="2401.34217" cy="2135.72212" rx="141.9746" ry="33.43505"/><path d="M757.38615,575.51729c-8.4097,6.9355-10.2378,19.2646-11.10158,29.4643-1.439,16.9932.54588,34.3096,2.97708,51.1162,5.8247,40.2667,16.2837,79.9292,27.7993,118.899q5.77443,19.54095,12.1904,38.8877c.4756,1.4282,6.2207-.2754,5.7959-1.5528-11.5659-34.7446-21.6592-70.0468-29.9316-105.7207a606.33888,606.33888,0,0,1-11.1504-60.0742c-2.0689-16.2046-3.5523-33.0561-1.1826-49.3125,1.14692-7.8701,3.4638-16.8086,9.8652-22.0879,1.3042-1.0757-4.167-.5224-5.2617.3809Z"/><path d="M693.00775,549.38839c-10.8531,25.687-14.6236,53.9477-15.441,81.6401a322.46361,322.46361,0,0,0,8.8604,86.458c.6045,2.4488,6.4057.918,5.7959-1.5527-6.8833-27.8804-9.5171-56.773-8.81248-85.4517.66888-27.2373,4.415-55.374,15.08538-80.6289,1.2339-2.9204-4.5883-2.5947-5.4882-.4648Z"/><path d="M1826.33537,759.88689c-41.9258,14.4019-62.8213,56.9566-85.8076,91.5381-1.6866,2.5381,4.2207,2.3999,5.4941.4853,21.5967-32.4916,41.7754-74.8344,81.2822-88.4052,3.4239-1.1763,2.5342-4.8218-.9687-3.6182Z"/><path d="M1747.79337,734.72279a364.5162,364.5162,0,0,0-71.1963,71.1495c-2.21,2.9287,3.2822,3.6645,4.8262,1.6191a359.40662,359.40662,0,0,1,70.1846-70.2344c3.1464-2.3745-1.5831-4.2177-3.8145-2.5342Z"/><path d="M1385.11907,1164.04219H1339.08l-1.4888-2.1802c-23.7324-34.7544-64.4418-67.3203-67.4238-69.6831l-.3086-.2466c-4.9428-4.1479-9.9961-8.2929-15.3457-12.6811-39.3335-32.2661-83.915-68.8369-111.7685-128.0625l-1.2652-2.6895,1.7583-2.3965c.1856-.2529,18.8413-25.999,31.0225-65.0415,11.1626-35.7778,19.0234-90.4526-6.9194-147.7441l-4.4839-9.9024,10.438,3.0401c.3647.1059,37.0127,10.6142,85.5283,10.6142,54.7983,0,102.1836-12.8066,140.8388-38.0639l2.691-1.7583,2.7168,1.7182c30.3535,19.1988,73.0205,48.1387,103.9101,76.98,37.0274,34.5718,49.5772,62.0977,37.2998,81.814-13.2392,21.2641-22.1963,26.9468-45.6035,33.2187,5.5918,42.604.2734,82.544-15.4521,115.7754-12.7725,36.2725-95.0996,150.3653-98.6084,155.2183Zm-40.7818-10h35.6641c11.4277-15.9243,84.7578-118.7647,95.8369-150.7383l.2393-.5996c15.5088-32.6357,20.3789-72.3013,14.0849-114.709l-.664-4.4678,4.3779-1.1123c24.332-6.1806,31.3008-9.6831,43.915-29.9419,16.2471-26.0927-33.0712-78.2802-135.3759-143.3501-39.7979,25.1827-88.0865,37.9458-143.5923,37.9458a363.70467,363.70467,0,0,1-78.4082-8.5234c22.4653,56.833,14.437,110.2617,3.2856,145.833-10.6318,33.9131-25.5927,57.6621-30.6655,65.1553,26.9814,55.6709,69.8931,90.873,107.8203,121.9858,5.3721,4.4063,10.4458,8.5689,15.4312,12.7525l-.0103.0122C1281.15467,1088.12759,1320.14737,1119.673,1344.33727,1154.04219Z"/><path d="M1171.89537,731.25459s242.9136,70.9399,322.4517-150.4776c0,0-98.8848,25.7964-195.6201,0,0,0-174.124-27.9462-189.1724,96.7354,0,0-180.5742,111.7837,37.7144,271.5483C1147.269,949.06069,1223.48767,845.18819,1171.89537,731.25459Z"/><path d="M1340.91347,886.30779c-15.6748.0015-36.0864-10.333-61.8125-31.2046l6.3008-7.7656c23.5644,19.1182,42.4536,28.9062,55.5293,28.9077a18.94027,18.94027,0,0,0,9.9756-2.5366c19.1699-11.5767,13.9209-61.3482,10.2807-79.5493l9.8057-1.961a220.99514,220.99514,0,0,1,3.688,37.3741c.21,27.3847-6.0498,45.1142-18.605,52.6962A28.74,28.74,0,0,1,1340.91347,886.30779Z"/><path d="M1369.59077,1048.63349c-47.6617,0-89.1407-45.3482-91.0533-47.4697l7.4258-6.6973c.4785.5288,48.3955,52.8413,96.2476,42.8848,30.5332-6.3565,55.0942-36.5972,73.0014-89.8833l9.4786,3.1855c-19.125,56.9131-46.2022,89.3789-80.4781,96.4951A71.78279,71.78279,0,0,1,1369.59077,1048.63349Z"/><path class="cls-2" d="M1993.019,793.17889l-63.6026-48.8721c-137.1738,233.3077-328.7089,393.1353-489.9502,414.7354h-97.746s-36.0147,22.7026-86.0352,10.6572c-171.3223-41.2568-300.7969-220.2773-371.1084-734.062l-77-26.6748s29.42478,735.8545,430.959,866.1621c0,0,23.5635,210.6006,43.7158,313.8535h326.0293c32.7373-100.0283-30.0957-391.7793-30.0957-391.7793C1909.23677,930.10029,1993.019,793.17889,1993.019,793.17889Z"/><path d="M879.86125,439.29559l-70.8252-24.5361-.6348-2.6695a55.48,55.48,0,0,1-1.499-12.8208c0-27.6943,20.3618-50.2255,45.3896-50.2255,25.0274,0,45.3882,22.5312,45.3882,50.2255,0,14.5347-5.6899,28.3487-15.6108,37.9004Zm-62.2759-32.1572,59.6299,20.6572a43.057,43.057,0,0,0,10.4648-28.5264c0-22.1806-15.875-40.2255-35.3882-40.2255-19.5141,0-35.3896,18.0449-35.3896,40.2255A45.63853,45.63853,0,0,0,817.58535,407.13839Z"/><path d="M1991.03167,797.95719l-66.3467-50.9809.4121-2.8916c3.6279-25.4209,21.249-43.8716,41.8994-43.8716,23.4785,0,42.5801,23.9409,42.5801,53.3681,0,15.9927-5.6289,30.9957-15.4424,41.1626Zm-55.5547-55.2998,54.3594,41.77c6.2314-8.1381,9.7402-19.1289,9.7402-30.8462,0-23.913-14.6152-43.3681-32.5801-43.3681C1952.10587,710.21309,1939.183,723.69259,1935.477,742.65739Z"/><path class="cls-3" d="M1341.72017,1159.04219s54.2099,149.3169,59.0468,212.2007l49.9854,30.6357,22.5742-53.2099s-73.4922-177.7012-90.7627-189.6265Z"/><path d="M1282.25137,1588.97819s87.4346,240.0303-43.7158,485.8291c0,0,42.9765,95.6778,94.5683,1.0928,0,0,103.7354-137.1582,84.4727-409.6211,0,0,49.6797-20.2803,104.2412-2.2236,0,0,102.5986,106.8271,81.5977,407.5761,0,0,3.1611,82.0059,81.1611,24.0059,0,0,34.3662-297.1924-76.2959-506.6592Z"/><path d="M2543.31677,1744.18039a30.479,30.479,0,0,1-30.3925,30.5634h-223.1651a30.47734,30.47734,0,0,1-30.3906-30.5634h0a30.47615,30.47615,0,0,1,30.3906-30.5635h223.1651a30.47776,30.47776,0,0,1,30.3925,30.5635Z"/><path d="M2522.84417,1829.01139c0,16.878-11.6455,30.5606-26.0108,30.5606H2305.851c-14.3652,0-26.0107-13.6826-26.0107-30.5606h0c0-16.8818,11.6455-30.5664,26.0107-30.5664h190.9824c14.3653,0,26.0108,13.6846,26.0108,30.5664Z"/><path d="M2486.81977,1913.83859a30.56265,30.56265,0,0,1-30.5635,30.5634h-109.8291a30.56329,30.56329,0,0,1-30.5635-30.5634h0a30.56517,30.56517,0,0,1,30.5635-30.5635h109.8291a30.56453,30.56453,0,0,1,30.5635,30.5635Z"/><path d="M2562.16057,1696.34539h-321.6367l-2.9493-4.6162c-1.1582-1.8125-28.4375-45.5488-34.3828-145.4805l-.0146-.3535c-1.6738-69.6973-118.3115-256.2978-119.4893-258.1748l-.1875-.3105a367.45688,367.45688,0,0,1,307.2549-551.1495v-.1635l10-.0166c.1758,0,.3506.0029.5254.0063l.0645.001.0595-.001c.1739-.0034.3487-.0063.5244-.0063h10v.1801a367.66937,367.66937,0,0,1,307.2549,551.1495l-.1875.3105c-1.1777,1.877-117.8154,188.4775-119.4892,258.1748l-.0147.3535c-5.9453,99.9317-33.2246,143.668-34.3828,145.4805Zm-310.2207-20h298.8047c6.5937-13.1758,24.2119-54.8359,28.7734-131.1123,1.9727-74.8311,116.2617-258.1338,122.4414-267.9893a347.438,347.438,0,0,0,46.3779-173.582c0-191.0337-155.4121-346.9507-346.4404-347.5649l-.668-.002-.4414.002c-191.0283.6142-346.4414,156.5312-346.4414,347.5649a347.44458,347.44458,0,0,0,46.378,173.5801c6.167,9.835,120.4697,193.1553,122.4423,267.9912C2227.728,1621.50949,2245.34607,1663.16959,2251.93987,1676.34539Z"/><path d="M2541.66057,1643.86879c-37.6192-.2158-74.9121-5.5302-112.4229-7.7314-32.0381-1.8789-61.1904,4.3125-92.6513,9.3271-17.3028,2.7579-34.9307,4.501-52.4248,2.753a82.40279,82.40279,0,0,1-22.1065-5.4854c-4.2627-1.6865-6.4424-2.4189-2.3525-5.1611,9.3515-6.2705,23.4922-6.9824,34.2715-8.3438,38.4199-4.8525,77.374-5.4775,115.999-7.7285,35.1074-2.0468,71.6269-3.667,105.5879-13.5742,12.3984-3.6172,45.8974-17.1094,29.8613-35.3808-9.8291-11.2002-32.9141-10.6944-46.2656-11.2256-22.5088-.8965-45.1572.8447-67.5781,2.6816q-43.1544,3.53475-86.4249,5.4697c-8.4316.3692-85.6611,4.7364-77.2871-13.9814,2.8819-6.4404,11.2198-11.1719,16.833-14.7207,11.4581-7.2412,25.8819-9.0293,39.0821-10.2695,28.4355-2.6739,57.3789-.1631,85.8105,1.3876,48.5078,2.6465,102.919,5.1768,145.5449-22.8769,13.6788-9.0029,10.6016-19.2109-3.0332-25.7754-25.5966-12.3232-57.873-12.5225-85.6035-13.3955-33.5586-1.0557-65.5078,4.1201-98.6601,7.3086-22.1817,2.1328-43.7422,10.2627-65.6055,14.334-20.0986,3.7422-49.1357,6.1631-59.4824-16.0869-8.7803-18.8809,10.4541-26.9649,25.6308-29.7969,18.043-3.3662,36.7774-3.1758,55.0635-3.0166,15.7158.1377,31.4229-.7549,47.1553-.6983,45.5234.1631,91.209,1.4913,136.5273-3.7763,30.6778-3.5664,72.9131-9.8623,92.1494-37.3252a.56539.56539,0,0,0-.2294-.8565c-25.7383-11.7617-56.9561-9.5-84.3926-7.3955-39.9004,3.0615-79.4492,10.0157-119.0655,15.4541-38.0839,5.2285-77.3125,10.5088-115.7724,6.628-27.0723-2.7325-55.9678-12.3038-66.1162-40.0245q-1.92045,1.34625-3.8389,2.6934c68.1748-24.5264,144.5625-2.0879,215.043-6.4414,33.5586-2.0723,67.3388-6.3564,100.5791-11.25,32.1357-4.7305,69.2871-9.3447,97.6631-26.417,27.3798-16.4727-.6368-37.2598-20.1993-44.2344-19.3876-6.9121-41.4062-6.958-61.7187-6.6992-27.0898.3447-54.1484,3.1455-81.0332,6.2852-48.6143,5.6767-98.5576,9.6455-146.207,20.9218-31.6387,7.4873-68.9883,19.668-100.8086,7.3213-9.0157-3.498-24.5938-9.165-27.3145-19.8271-2.5605-10.0293,16.9209-15.7295,23.1299-17.8653,32.1494-11.0546,67.2373-13.5283,100.9111-15.6372,39.5645-2.4775,79.2578-2.4106,118.875-3.3413,39.8838-.9375,79.3116-4.2802,118.8877-9.1767,34.2451-4.2373,70.1026-8.3672,102.6963-20.272,6.9004-2.5205,18.7715-6.5273,21.3164-14.4468,2.7774-8.6426-12.3525-14.498-17.8164-16.8393-34.1074-14.6197-70.7207-16.127-107.2148-13.772-86.8662,5.6045-172.2715,32.103-259.7227,29.2749-33.789-1.0928-70.7812-8.5444-93.7617-35.4605-30.0986-35.2543-22.9219-88.7905-19.0898-131.0332,5.8769-64.7827,17.7861-138.9033-17.2256-197.9467-14.8506-25.044-37.166-45.9287-58.9248-64.857-28.2198-24.5478-59.1416-46.0195-90.9571-65.6084-21.7558-13.3955-46.9472-22.1045-70.665-31.372-30.9541-12.0952-62.2168-23.4004-93.5518-34.4644-171.414-60.5259-345.2988-114.2607-519.164-167.2358-139.4737-42.4966-279.1377-84.9883-419.898-123.0689-11.8515-3.2065-24.749-8.2011-37.0586-9.2265-35.0879-2.9239-58.2202,31.2016-75.5664,56.4502-10.7759,15.685-20.8144,32.4917-34.4145,45.956-4.7798,4.7324-9.8384,9.4712-16.8487,7.6978-4.0507-1.0249-9.0546-4.0332-10.8701-7.9659-3.52238-7.6308-3.8305-17.3115-4.6323-25.5224-1.4014-14.3604-2.0015-28.8037-2.5547-43.2168-1.3266-34.5523-1.71-69.1338-2.9546-103.6885-.5112-14.1977-1.1455-28.4062-2.4375-42.5571-.727-7.961-1.1504-17.0005-4.4365-24.4224-2.5752-5.8154-11.1221-3.2319-15.0635-.1416-5.917,4.6392-7.8164,15.4111-9.7632,22.1006-12.7963,43.9741-17.4336,88.832-26.7397,133.4722-4.1465,19.8882-10.667,39.1572-21.6831,56.3325-13.7822,21.4883-34.773,36.7641-57.0112,48.5752-54.6109,29.0044-117.0176,29.3652-173.3047,4.8476-93.0508-40.5312-152.9698-150.2353-123.8965-249.9194,39.5459-135.5898,227.98729-96.5034,307.45989-23.9966,19.7535,18.0225,35.7779,40.8975,41.815,67.2315,6.3208,27.5713-1.3613,55.2304-16.2476,78.6792-39.5263,62.2602-117.5888,88.9531-186.8354,99.7846-79.3472,12.4117-162.9556,6.0166-240.02689-16.1196-61.6401-17.7041-130.5156-49.3579-163.52489-107.5791-35.5298-62.6665-2.626-130.9614,39.7984-180.6069,70.1352-82.0742,186.2119-119.4634,291.96329-114.6231,52.3892,2.398,104.9815,17.6533,146.7212,50.1636,37.6045,29.2896,58.46,70.4805,61.3008,117.8486,2.69632,44.9644-11.59568,92.4844-41.8491,126.2832-30.1914,33.7295-76.7705,46.2344-119.6597,31.4795-62.4511-21.4839-58.9634-95.4922-42.1572-147.1089,22.79-69.9941,72.6719-135.9687,135.5981-174.5024,31.4414-19.2534,67.5025-29.9839,104.4649-25.1846,42.3706,5.5015,79.6142,30.1241,102.4282,65.9341,27.4126,43.0278,35.7549,97.3042,34.3726,147.4683-1.3599,49.3652-13.3404,105.1836-47.52048,142.7134-17.85012,19.5991-40.66262,30.2695-67.19052,25.2763-22.3042-4.1982-42.0903-17.9726-58.5527-32.9648-37.8179-34.4414-63.7822-84.4434-73.8799-134.2739-8.8545-43.6973-1.978-96.9078,37.3853-123.9996,34.2763-23.5908,79.7392-10.6962,107.9399,16.1387,38.7192,36.8442,45.4605,100.2388,30.0991,149.1026-16.9697,53.979-64.9067,92.581-118.3593,107.0156-52.65,14.2168-111.3877,2.0527-161.3482-17.149-31.6059-12.1474-62.3218-30.7641-81.73-59.1704-32.8051-48.0127-16.6162-108.0742,13.55231-152.8335C355.34266,95.86049,411.56776,54.947,472.39686,40.298c65.7544-15.8354,129.4175,10.0689,168.3311,64.6539,37.9389,53.2182,49.1054,119.3969,17.519,178.2265-30.0327,55.9351-88.0517,93.8936-146.3652,115.0947-60.7793,22.0977-130.99119,28.0538-192.645,5.9561-63.2076-22.6548-103.2969-76.3076-114.9566-141.5029-9.2593-51.773-2.1308-103.6509,24.5313-149.3565,31.5786-54.1343,87.5019-93.9751,149.144-105.2163,35.957-6.5571,74.3789-1.9844,106.7778,15.3003,24.2569,12.9404,42.0464,34.2378,55.6792,57.6685,29.3594,50.4585,42.6162,108.3769,78.8516,155.1518,1.6011,2.0674,11.6084-.3227,11.5908-3.1054-.4194-66.3296-41.8769-116.8653-103.9546-137.0289-58.9189-19.1377-128.0141-10.143-181.2856,20.8389-61.1372,35.5562-87.2959,101.2842-76.6069,169.978,12.538,80.5791,65.3872,176.3472,151.9702,193.087,59.54,11.5117,124.1865-17.7134,159.54-65.8165,16.4341-22.3613,26.0474-50.1318,23.2549-78.0131-3.1958-31.9053-24.57328-58.5127-50.4736-75.8731-36.2915-24.3262-82.0479-28.0942-123.3609-38.519-20.3843-5.1436-40.3286-12.4688-57.11279-25.4112-18.88521-14.5625-29.436-36.2041-35.00681-58.9121-10.981-44.7578-2.8814-99.0683,42.0391-121.4795,40.164-20.038,92.3813-6.4506,129.3686,14.2876,85.8438,48.1319,105.2153,153.9424,76.5977,241.4224-28.3594,86.689-103.6914,170.3994-197.8072,182.3394-79.9052,10.1367-180.8213-38.876-177.0508-129.6207,3.0547-73.5087,69.8956-142.2919,142.3965-149.604,51.8828-5.2329,101.8892,24.0918,143.4004,51.8394,31.7349,21.2129,64.7022,50.3721,72.8579,89.4365,13.6363,65.3155-57.5527,112.2559-108.6806,133.4058-29.294,12.1177-61.3379,19.7446-93.1363,19.6074-23.1259-.0991-50.6801-5.1294-65.0214-25.2319-1.9278-2.7022-12.3204,2.0835-11.5909,3.1054,13.6963,19.1988,38.2759,24.8121,60.5186,26.3042,30.793,2.066,62.1558-4.4199,91.3721-13.6323,54.0678-17.0483,123.104-53.4267,137.5346-113.5469,7.21-30.0376-5.5029-59.5024-25.0381-82.0405-15.33-17.686-33.811-32.0815-53.3237-44.8696-24.7881-16.2456-52.3682-31.71-80.4429-41.3609-69.7954-23.9931-146.7949,8.1197-190.0503,65.1094-20.4414,26.9321-33.30849,60.4512-32.4726,94.4981.87211,35.5239,19.8994,66.3388,48.0185,87.1157,73.20461,54.0903,173.1665,40.7261,243.88819-9.4746,72.3472-51.3545,121.02741-141.5196,119.4449-230.6802C609.01357,92.715,541.352,13.82879,449.36857,3.27459c-35.48391-4.0713-75.46441,3.6489-101.65331,29.3926-33.01169,32.4512-30.9605,88.5381-14.9502,128.5215,16.2739,40.6416,55.271,57.2602,95.1054,66.7841,42.8916,10.2549,88.85111,15.1641,124.5274,43.5528,24.5156,19.5078,40.5386,47.6142,40.3159,79.3149-.2065,29.4644-14.96,57.4561-34.4629,78.7881-47.1689,51.5933-122.13128,63.3467-180.646,23.7944-40.23-27.1928-65.3154-72.0297-82.3437-116.33-15.168-39.46-22.6973-83.0977-12.9473-124.8037,15.5356-66.4532,75.5493-108.8067,140.4453-119.0508,45.3306-7.1553,94.5581.8286,133.6353,25.3828,41.0454,25.7905,62.5664,69.7807,62.8696,117.6528q5.7957-1.55265,11.5908-3.1054c-29.9101-38.6104-45.2612-84.8223-65.3672-128.7173-18.7827-41.0069-44.74308-76.7276-88.2773-93.1993-103.9859-39.3442-226.74509,29.7564-270.88479,125.5249-32.584,70.6963-21.23,167.65,32.02929,225.813,41.7324,45.5747,105.7798,61.2652,165.6084,59.6783,64.0571-1.6983,128.7222-21.9087,182.6914-56.3487,48.7515-31.1103,91.2818-77.8755,100.7066-136.6562,10.3134-64.3242-26.3091-134.8413-78.57768-171.3902-50.35252-35.2094-115.45261-31.8066-170.50731-10.309-56.3208,21.9921-107.0005,63.2973-137.6851,115.6245-27.53559,46.9575-34.4301,105.4648,1.8379,149.8217,22.17,27.1143,54.8496,43.6084,87.3633,54.8453,46.896,16.2075,97.6289,24.5527,146.7949,15.3667,47.9971-8.9673,93.191-34.4307,122.1695-74.1485,31.6279-43.3501,37.2197-103.917,16.8921-153.1938-15.042-36.4649-48.1631-63.7202-87.7715-67.7686-33.5982-3.4336-68.0005,10.6001-88.6582,37.3584-28.7012,37.1782-24.3535,90.1841-11.0821,132.3062,14.6866,46.6128,43.4791,91.999,82.9341,121.4126,32.4312,24.1777,72.7681,29.9604,108.4707,9.4013,40.9468-23.5791,58.9385-73.5083,67.20172-117.3779,16.90138-89.7314-2.87262-210.605-95.91552-250.6514-65.4576-28.1728-137.6827-2.4204-190.4947,39.7588-55.687,44.4756-99.9589,111.0025-115.3945,180.8994-5.9946,27.1441-7.2998,56.981,4.1348,82.9117,10.9931,24.9301,34.2402,39.4301,60.1728,44.9804,37.9204,8.1153,78.5669-1.7465,109.3618-24.9526,34.1006-25.6968,52.7085-67.7148,58.4707-109.082,6.044-43.3907-3.4716-89.9429-31.0883-124.5503-30.3863-38.0772-75.8418-60.8448-122.4756-71.9053-97.7573-23.1865-209.61229.9126-295.003,51.6992-38.9096,23.1426-71.4267,55.189-96.6376,92.7046-18.3018,27.2339-31.5665,58.8013-31.8697,91.999-.5649,61.9219,49.1426,107.356,99.5176,134.8179,66.2046,36.0903,143.9419,51.1377,218.64549,54.3276,74.7383,3.191,153.1294-6.5825,221.39409-38.5542,52.7485-24.705,110.2578-72.6254,107.9335-136.5097-2.0478-56.2954-52.9985-98.0977-99.3374-121.3184-53.4321-26.7744-117.5957-37.9121-176.1176-23.3535-26.649,6.6294-51.9512,19.6997-70.79889,39.9023-21.35791,22.8941-31.45941,53.1416-34.54831,83.8282-10.7148,106.4599,65.3906,204.5293,166.9512,230.6679,88.7387,22.8389,206.38079-17.4843,233.96819-111.4179,5.87992-20.0205,8.583-40.9248,11.71492-61.5005,3.90618-25.667,9.51558-50.5318,15.70358-75.7085,2.6147-10.6402,4.9536-22.8672,10.7773-32.3486,2.9156-4.7457-3.937,2.2636-6.89888.5737a4.37391,4.37391,0,0,1,1.41748,1.9961c1.4922,3.0234,2.0376,6.6015,2.6191,9.8847,4.8286,27.2447,4.3223,55.8545,5.0708,83.4175.919,33.8316,1.3228,67.7007,3.271,101.4951.9014,15.6426-1.748,42.8374,14.0948,51.8462,26.8403,15.2622,52.5839-22.5039,64.7944-40.1216,11.6753-16.8447,22.5469-34.4233,36.4062-49.6137,8.9268-9.7847,20.6431-20.8384,34.8203-17.6314,14.4864,3.2769,28.8145,7.336,43.1343,11.2569,145.46243,39.8281,289.90333,83.6611,434.11673,127.7519,172.8037,52.8316,345.7198,106.3198,515.8448,167.3335,29.4482,10.5615,58.8007,21.4277,87.8232,33.1167,11.0693,4.4585,22.0791,9.0694,32.9746,13.938,22.4678,10.0391,42.8291,24.3521,62.9248,38.4414,52.418,36.7505,108.3369,81.355,124.4375,146.1646,16.7354,67.3628-2.2656,138.1303-3.3779,206.1474-.584,35.6836,8.332,72.1333,38.7685,93.7608,27.667,19.6591,65.0039,22.2143,97.7842,21.8984,87.125-.8398,171.8145-26.9683,258.7324-30.248,18.1719-.6856,36.4825-.0669,54.3536,3.4941,15.6269,3.1143,35.5556,7.8066,48.0761,18.4331,18.3125,15.543-48.373,26.856-54.5566,27.9834-35.8838,6.543-72.2959,10.3667-108.6045,13.6431-65.4141,5.9033-131.3662,2.4008-196.8701,7.5385-29.5752,2.3199-59.1934,6.3365-87.6153,15.0757-10.1816,3.1309-36.206,10.0039-35.0742,24.6114.6582,8.4921,13.9854,14.1718,20.1074,17.1728,12.5899,6.1709,25.21,8.7891,39.1465,9.0166,28.6348.4688,57.2871-7.8799,84.9053-14.415,24.0615-5.6944,48.2725-7.6202,72.7314-10.752,26.9629-3.4521,53.8838-7.2021,80.9151-10.1006,27.3623-2.9336,54.9443-5.0996,82.4765-4.0049,20.6866.8223,40.1241,4.3799,57.293,16.4366,6.9815,4.9033,15.5127,13.125,10.5303,22.2021-5.1367,9.3565-19.4356,13.2822-28.7324,16.3018-32.5635,10.5742-67.711,14.4658-101.5801,18.3847-36.7774,4.2549-73.376,7.8096-110.4551,6.2002-58.5127-2.539-119.1435-11.8213-175.6641,8.5118-.621.2236-4.2959,1.4453-3.8388,2.6933,11.1513,30.46,44.2812,39.4229,73.624,41.7373,43.9697,3.4688,88.4951-3.3076,131.9229-9.5039,44.3261-6.3242,89.1562-14.6562,134.08-14.2851a170.92316,170.92316,0,0,1,25.6827,2.0576c3.8798.622,22.0205,3.3213,18.2656,8.1963-13,16.8828-38.0078,22.0605-57.6885,25.5752-50.0156,8.9306-101.8506,6.1113-152.4072,5.9306-35.2246-.1269-72.5694-1.7773-107.2715,4.6973-13.002,2.4258-30.6348,6.792-37.625,19.3125-8.5674,15.3418,9.2715,30.5937,22.043,34.6728,19.875,6.3477,44.1084.4414,63.706-4.1074,24.8203-5.7607,48.999-11.0537,74.2529-14.5068,38.9571-5.3281,80.7676-5.333,119.5928,1.1387,8.5176,1.4199,55.3389,9.8212,39.8154,27.0927-9.833,10.9405-29.3046,15.0039-42.664,18.8115-13.0039,3.7061-26.793,4.2559-40.2305,4.4747-28.2471.458-56.5-2.1475-84.7021-3.3448-40.0186-1.6992-90.7725-3.7841-121.8291,26.5186-22.2491,21.709,35.9101,22.2988,45.2822,22.416,29.4053.3701,58.8682-2.0732,88.2178-3.585,40.9472-2.1084,84.08-11.163,124.7109-2.0576,10.7168,2.4024,23.1797,9.8438,17.0293,22.3662-4.6875,9.542-18.4063,12.7979-27.6748,15.166-36.4697,9.3165-75.7236,9.8086-113.1113,11.7881-32.6485,1.7286-65.4659,2.7627-97.9287,6.8623-15.0313,1.8985-42.5577,3.6045-52.1475,17.7754a.56536.56536,0,0,0,.2295.8565c37.0781,19.2959,84.1387,6.6396,122.8652-.2246,54.7705-9.708,110.752,4.5039,165.9238,4.8213,2.2735.0127,13.1583-4.4424,7.586-4.4747Z"/><path d="M2346.975,1973.38939h108.7354s-73.0567,27.1835-74.7549,40.7753C2380.95547,2014.16469,2352.07267,2024.35809,2346.975,1973.38939Z"/></g></g></svg>