<svg xmlns="http://www.w3.org/2000/svg" viewBox="0 0 20.226 23.11535"><defs><style>.cls-1{fill:#e2574c;}.cls-2{fill:#b53629;}.cls-3{fill:#fff;}</style></defs><title>pdf</title><g id="Layer_2" data-name="Layer 2"><g id="Grid"><path class="cls-1" d="M1.44486,0H13.71969L20.226,6.4809V21.67058a1.445,1.445,0,0,1-1.44486,1.44477H1.44486A1.44479,1.44479,0,0,1,0,21.67058V1.44486A1.44511,1.44511,0,0,1,1.44486,0Zm0,0"/><path class="cls-2" d="M20.20488,6.50127H15.16959a1.44529,1.44529,0,0,1-1.44486-1.44486V.01467Zm0,0"/><path class="cls-3" d="M14.80681,10.953a.41991.41991,0,0,0,0-.83142H13.42838a.43086.43086,0,0,0-.41968.46975v3.38676c0,.30215.17191.46966.40473.46966.231,0,.4037-.16751.4037-.46966v-.9296h.83347a.39127.39127,0,0,0,.388-.42183.38407.38407,0,0,0-.388-.41024h-.83347V10.953Zm-4.65859-.83142H9.13986a.44591.44591,0,0,0-.46789.46677V13.981a.44419.44419,0,0,0,.47956.45434h1.058A1.96271,1.96271,0,0,0,12.2894,12.3391a2.01423,2.01423,0,0,0-2.14118-2.21751Zm.04858,3.47766H9.58214v-2.6412h.554c.8387,0,1.20326.56281,1.20326,1.33938,0,.72668-.35839,1.30182-1.14262,1.30182Zm-3.694-3.47766h-.9993a.42033.42033,0,0,0-.43977.46975v3.38676a.42565.42565,0,1,0,.84674,0v-.98865h.62625a1.36789,1.36789,0,0,0,1.41048-1.42814,1.38369,1.38369,0,0,0-1.44439-1.43972Zm-.01682,2.07335H5.91043V10.91685h.57551a.64187.64187,0,0,1,0,1.27809Zm0,0"/></g></g></svg>