<svg xmlns="http://www.w3.org/2000/svg" viewBox="0 0 328.00094 275.25238"><defs><style>.cls-1{fill:#ed1f24;}</style></defs><title>polj</title><g id="Layer_2" data-name="Layer 2"><g id="Layer_1-2" data-name="Layer 1"><g id="Layer_2-2" data-name="Layer 2"><g id="Layer_1-2-2" data-name="Layer 1-2"><path class="cls-1" d="M60.74134,152.69149c-33.49219,0-60.74023,27.49023-60.74023,61.28027A60.96516,60.96516,0,0,0,17.83118,257.422a60.082,60.082,0,0,0,42.91016,17.83011c34.02148,0,60.67187-26.918,60.67187-61.28027a61.29973,61.29973,0,0,0-17.56543-43.25391A59.9676,59.9676,0,0,0,60.74134,152.69149Zm0,111.03613c-27.1377,0-49.21582-22.32031-49.21582-49.75586S33.60364,164.2159,60.74134,164.2159c27.06836,0,49.14648,22.31934,49.21484,49.75293C109.95618,241.87215,88.338,263.72762,60.74134,263.72762Z"/><path class="cls-1" d="M287.61536,194.34676c-22.34277,0-39.84375,17.8877-39.84375,40.72363,0,22.53223,17.501,40.18164,39.84375,40.18164,22.64551,0,40.38477-17.62012,40.38477-40.11426A40.66619,40.66619,0,0,0,316.254,206.29012,40.055,40.055,0,0,0,287.61536,194.34676Zm0,69.38086c-16.14453,0-28.31934-12.32031-28.31934-28.65723,0-16.373,12.43945-29.19922,28.31934-29.19922,16.18359,0,28.86035,12.82617,28.86035,29.19922A28.45332,28.45332,0,0,1,288.23,263.72979Q287.92266,263.732,287.61536,263.72762Z"/><path class="cls-1" d="M29.07434,143.65926H105.339l39.69141,87.14355a5.73665,5.73665,0,0,0,5.24316,3.40332h75.26367a5.68971,5.68971,0,0,0,5.0127-2.93848l25.84769-45.95215H305.548l12.05859,12.19824a5.80375,5.80375,0,0,0,4.06641,1.71484l.05762.001a5.60521,5.60521,0,0,0,3.99316-1.65234,5.78455,5.78455,0,0,0,.0755-8.18024l-.00812-.00824L312.0607,175.52355a5.7677,5.7677,0,0,0-4.09082-1.73242H300.005V124.03426a5.76879,5.76879,0,0,0-5.7627-5.76172H265.923V12.99813a5.769,5.769,0,0,0-5.7627-5.7627H239.80579a5.76245,5.76245,0,0,0,0,11.5249h14.59277v99.51221H182.05091l-.21094-.71875L148.63684,4.14949A5.73,5.73,0,0,0,143.10563,0H40.38684a5.7152,5.7152,0,0,0-5.7002,5.18359L21.1261,135.36824,2.1554,155.02352A5.77042,5.77042,0,0,0,.55872,159.128a5.64694,5.64694,0,0,0,1.76855,4.01172,5.85976,5.85976,0,0,0,4.11035,1.60156,5.64644,5.64644,0,0,0,4.01074-1.76855Zm154.416,22.03125V129.797H288.48063v16.26855H260.16028a5.76221,5.76221,0,0,0,0,11.52441h28.32034v16.26855H252.09876a5.6761,5.6761,0,0,0-4.11719,2.87109h-.001l-25.84766,45.95215H153.9581l-23.293-51.22949h47.06351A5.76859,5.76859,0,0,0,183.49036,165.69051ZM114.85361,11.45711h23.998l33.11426,113.52441v34.87891H125.421l-10.56741-23.23437Zm-69.28223.06738H103.3292V132.13484H33.05579Z"/></g></g></g></g></svg>