<svg xmlns="http://www.w3.org/2000/svg" viewBox="0 0 338.19023 215.59094"><defs><style>.cls-1{fill:#ed1f24;}</style></defs><title>Prik</title><g id="Layer_2" data-name="Layer 2"><g id="Layer_1-2" data-name="Layer 1"><g id="Layer_1-2-2" data-name="Layer 1-2"><path class="cls-1" d="M295.431,185.55859h37.03223a5.72754,5.72754,0,0,0-.001-11.45508H306.17314V157.80469a5.75069,5.75069,0,0,0-3.72949-5.36719L211.5804,114.90918l12.752-33.14844,34.19922-19.001a5.72779,5.72779,0,0,0,2.94727-5.00586V11.4541h8.94727a5.72705,5.72705,0,0,0,0-11.4541H146.3636a5.72705,5.72705,0,1,0,0,11.4541h8.94818v60.583H118.8636V57.75391a5.726,5.726,0,0,0-7.18066-5.53906L4.27668,88.33594a5.69555,5.69555,0,0,0-4.19043,6.499l12.0752,70.89941.5,2.27734-1.42285,1.84766a28.096,28.096,0,0,0-5.89844,17.29395A28.40577,28.40577,0,1,0,60.26593,176.997l-2.6123-6.79492H77.76691l-2.6123,6.79492a28.40479,28.40479,0,1,0,53.04,0l-2.6123-6.79492h39.1524l.32227,4.65527a43.73928,43.73928,0,1,0,81.25977-25.31348l-7.24026-12.18262L294.72,161.78513v12.31937h.71094a5.72705,5.72705,0,0,0,0,11.4541ZM166.765,11.4541h83.25977V54.38477L218.2513,72.03711H166.765ZM12.25716,98.08011l95.15137-32.89844v50.10645H15.18293ZM33.74642,204.10355a16.95068,16.95068,0,1,1,16.95117-16.9502,16.95067,16.95067,0,0,1-16.95117,16.9502ZM22.57259,158.74808l-5.44141-32.00586h90.27734v32.00586Zm79.10156,45.35547a16.95068,16.95068,0,1,1,16.9502-16.95117v.001a16.97,16.97,0,0,1-16.9502,16.95016ZM166.804,158.74808H118.86263V83.49219h92.53415L193.1722,130.86331l-1.916.83594a44.2282,44.2282,0,0,0-23.19336,23.9082Zm74.17285,13.06348a32.293,32.293,0,1,1-32.294-32.292h.001a32.329,32.329,0,0,1,32.293,32.292Z"/></g></g></g></svg>