<svg xmlns="http://www.w3.org/2000/svg" viewBox="0 0 314.2168 275.14159"><defs><style>.cls-1{fill:#ed1f24;}</style></defs><title>stamp</title><g id="Layer_2" data-name="Layer 2"><g id="Layer_1-2" data-name="Layer 1"><g id="Layer_2-2" data-name="Layer 2"><g id="Layer_1-2-2" data-name="Layer 1-2"><path class="cls-1" d="M275.0202,183.42473l.9985-2.81781h32.97656a5.22769,5.22769,0,0,0,5.22153-5.22153V118.66353a5.227,5.227,0,0,0-5.22153-5.2207H276.01953l-.99933-2.817a24.03256,24.03256,0,0,0-4.7818-8.04431l-2.531-2.82361,2.531-2.82526a24.04836,24.04836,0,0,0,4.7818-8.04431l.99933-2.817h32.97574a5.22769,5.22769,0,0,0,5.22153-5.22153v-56.721a5.22767,5.22767,0,0,0-5.22153-5.22153H276.01871l-.99933-2.81783A24.188,24.188,0,0,0,252.27426,0H61.94255A24.18984,24.18984,0,0,0,39.19661,16.08946l-.9985,2.81783H5.22153A5.22765,5.22765,0,0,0,0,24.12881v56.721a5.22767,5.22767,0,0,0,5.22153,5.22153H38.1981l.9985,2.817a24.04883,24.04883,0,0,0,4.78178,8.04431l2.531,2.82526-2.53183,2.82361a24.044,24.044,0,0,0-4.781,8.04431l-.9985,2.817H5.22153A5.227,5.227,0,0,0,0,118.6635v56.72183a5.22767,5.22767,0,0,0,5.22153,5.22153H38.1981l.9985,2.81781a24.18914,24.18914,0,0,0,22.74594,16.08862H75.6283v70.40759a5.227,5.227,0,0,0,5.22153,5.2207H233.367a5.227,5.227,0,0,0,5.22153-5.2207V199.51335h13.68576A24.18912,24.18912,0,0,0,275.0202,183.42473Zm1.382-59.53967h27.37149V170.1638H276.40219Zm0-94.53558h27.37149V75.62825H276.40219ZM37.81456,75.62828H10.44305V29.34949H37.81456Zm0,94.53558H10.44305V123.88506H37.81456Zm39.19661-59.60248a24.50586,24.50586,0,0,0-1.38287,8.10217v70.40759H61.94255a13.70079,13.70079,0,0,1-13.68575-13.68576V118.66353A13.7328,13.7328,0,0,1,61.94255,104.915H79.01233Zm151.13422,154.138H86.07141V118.66353a13.70061,13.70061,0,0,1,13.68576-13.68491H214.46133a13.70028,13.70028,0,0,1,13.68411,13.68491ZM61.94255,94.53554A13.70079,13.70079,0,0,1,48.25681,80.84981v-56.721A13.70078,13.70078,0,0,1,61.94255,10.44307H252.27423A13.70079,13.70079,0,0,1,265.96,24.12881v56.721a13.70079,13.70079,0,0,1-13.68576,13.68576ZM237.20563,110.625l-2.002-5.64639h17.07062A13.70061,13.70061,0,0,1,265.96,118.6635v56.72183a13.70079,13.70079,0,0,1-13.68576,13.68576H238.5885V118.66353a23.988,23.988,0,0,0-1.38287-8.03851Z"/></g></g></g></g></svg>