<svg xmlns="http://www.w3.org/2000/svg" viewBox="0 0 334.13841 334.07129"><defs><style>.cls-1{fill:#ed1f24;}</style></defs><title>tar</title><g id="Layer_2" data-name="Layer 2"><g id="Layer_1-2" data-name="Layer 1"><path class="cls-1" d="M186.792,100.69238a5.50005,5.50005,0,0,0-.14062-10.16309A101.2413,101.2413,0,1,0,243.5918,147.502a5.50118,5.50118,0,1,0-10.23145,4.0459A90.35622,90.35622,0,1,1,182.583,100.75,5.45606,5.45606,0,0,0,186.792,100.69238Z"/><path class="cls-1" d="M286.03711,139.8418a5.50849,5.50849,0,0,0-3.77344,6.80176,138.54607,138.54607,0,0,1,5.32422,38.127c0,76.25781-62.03613,138.29785-138.28809,138.29785-76.25781,0-138.29785-62.04-138.29785-138.29785,0-76.25684,62.04-138.29687,138.29785-138.29687a138.38927,138.38927,0,0,1,38.19238,5.34766,5.5006,5.5006,0,1,0,3.03516-10.57422,149.28845,149.28845,0,0,0-41.22754-5.77734C66.97559,35.4707,0,102.44629,0,184.77051c0,82.3252,66.97559,149.30078,149.2998,149.30078,82.31836,0,149.29-66.97559,149.29-149.30078a149.574,149.574,0,0,0-5.748-41.1543A5.51,5.51,0,0,0,286.03711,139.8418Z"/><path class="cls-1" d="M149.2998,142.33594c1.30371,0,2.585.05664,3.80957.16992a5.50178,5.50178,0,1,0,1.01074-10.957c-1.55566-.14355-3.17676-.21582-4.82031-.21582a53.43262,53.43262,0,1,0,53.42773,53.4375c0-1.55762-.07031-3.126-.208-4.66113v-.002a5.50081,5.50081,0,1,0-10.958.97852c.10742,1.2207.16211,2.46.16211,3.68555a42.43018,42.43018,0,1,1-42.42383-42.43555Z"/><path class="cls-1" d="M333.10449,52.249v-.001A13.46546,13.46546,0,0,0,320.626,43.91113H290.22656V13.5127a13.49787,13.49787,0,0,0-23.05078-9.55078L220.55957,50.5791a21.35247,21.35247,0,0,0-6.29492,15.20117v46.3125l-65.75879,65.75879a5.50148,5.50148,0,0,0,7.78027,7.78027L222.04492,119.873h46.3125a21.35559,21.35559,0,0,0,15.20117-6.29395l46.61719-46.61816A13.45962,13.45962,0,0,0,333.10449,52.249ZM225.26758,65.77832a10.42562,10.42562,0,0,1,3.07324-7.41992l50.88379-50.876V47.13379l-53.958,53.957Zm50.51172,40.01953a10.56753,10.56753,0,0,1-7.4209,3.07227H233.04883l53.95605-53.95605,39.6543.00488Z"/></g></g></svg>