<svg xmlns="http://www.w3.org/2000/svg" viewBox="0 0 344.13817 344.13835"><defs><style>.cls-1{fill:#ed1f24;}</style></defs><title>tele</title><g id="Layer_2" data-name="Layer 2"><g id="Layer_1-2" data-name="Layer 1"><path class="cls-1" d="M327.54245,309.71547q-.31027-.00568-.62054,0H263.83151V273.94362a40.43741,40.43741,0,0,0,9.86749-56.32935q-.55252-.78717-1.142-1.54742A137.32106,137.32106,0,0,0,246.62509,57.35451a5.545,5.545,0,0,0-7.83942-.19049q-.0975.09293-.19049.19049l-57.179,57.35449H125.44894a22.95417,22.95417,0,1,0-16.47516,16.47516v56.19037L52.19266,244.3304a5.545,5.545,0,0,0-.19055,7.83942q.09293.0975.19055.19049a136.783,136.783,0,0,0,96.92987,40.14874,135.09956,135.09956,0,0,0,68.57361-18.7442c.084.05914.16736.1203.252.17877v35.77185H97.50333a16.899,16.899,0,0,0-17.20642,16.58588q-.00568.31027,0,.62054V338.393a5.41834,5.41834,0,0,0,5.73523,5.73529h252.361a5.41834,5.41834,0,0,0,5.73523-5.73523V326.92183A16.899,16.899,0,0,0,327.54245,309.71547ZM169.98129,126.18087l-20.72162,20.78479-20.78485-20.78479ZM120.445,134.21l20.79761,20.79755L120.445,175.869ZM103.23856,120.4449a11.50476,11.50476,0,0,1-11.47119-11.47113l.00006-.00006a11.47117,11.47117,0,1,1,22.94232-.02972v.02972a11.37768,11.37768,0,0,1-2.12122,6.609,32.40948,32.40948,0,0,0-2.741,2.741A11.379,11.379,0,0,1,103.23856,120.4449ZM64.23709,247.77236,186.56863,125.44149a5.0053,5.0053,0,0,0,1.96265-1.96259l54.07916-54.07922c34.41284,37.85413,43.016,91.76733,21.221,138.22461a41.16292,41.16292,0,0,0-18.70728-6.66541c-.10956-.01141-.22046-.01953-.33-.0296q-.76318-.07059-1.52844-.11426c-.16937-.0094-.33807-.01947-.50745-.02753-.62238-.02759-1.24542-.04639-1.86847-.04639a39.90082,39.90082,0,0,0-40.14807,39.652q-.00156.248,0,.496c0,.66071.01947,1.31732.04907,1.972.00537.121.01477.24127.02148.36224q.04742.872.12976,1.73547c.0047.045.00873.0907.01343.13574a38.87,38.87,0,0,0,2.86456,11.37775c.03766.09009.07532.1795.11359.26953q.17743.40933.365.81464a39.74646,39.74646,0,0,0,4.87225,8.089A124.958,124.958,0,0,1,64.23709,247.77236Zm148.01343-5.36823c-.02417-.50073-.03833-1.00482-.03833-1.51361a28.39905,28.39905,0,0,1,28.11768-28.67761q.28-.00275.55994,0a28.81287,28.81287,0,0,1,16.131,4.83936,31.3564,31.3564,0,0,1,4.36279,3.6167,28.97731,28.97731,0,0,1-4.57581,44.19495v-.00006a5.08307,5.08307,0,0,0-1.5788.689,28.48929,28.48929,0,0,1-28.67761,0,5.09767,5.09767,0,0,0-1.5788-.689A28.381,28.381,0,0,1,212.25052,242.40413Zm17.16882,36.99731a40.55831,40.55831,0,0,0,8.27789,1.502q.28436.02316.56866.0423c.291.01819.5827.03632.87579.04907q1.74719.07764,3.4964,0c.293-.01208.584-.03021.87579-.04907q.28436-.01913.5686-.0423a40.56008,40.56008,0,0,0,8.27856-1.5022v30.31421H229.41934Zm-137.652,53.25568v-5.73523a5.4184,5.4184,0,0,1,5.73529-5.73523H326.92191a5.41834,5.41834,0,0,1,5.73523,5.73523v5.73523Z"/><path class="cls-1" d="M57.35452,91.76735a5.73526,5.73526,0,0,0,11.47052,0A23.0092,23.0092,0,0,1,91.76669,68.8257a5.73526,5.73526,0,0,0,0-11.47052A34.51286,34.51286,0,0,0,57.35452,91.76735Z"/><path class="cls-1" d="M86.03214,40.14815a5.73523,5.73523,0,1,0,.01556-11.47046h-.01556A57.5232,57.5232,0,0,0,28.67764,86.03212a5.73527,5.73527,0,0,0,11.47052,0A46.01872,46.01872,0,0,1,86.03214,40.14815Z"/><path class="cls-1" d="M85.73575,11.47121q.14813-.00027.29639,0a5.73557,5.73557,0,0,0,0-11.47113A85.91647,85.91647,0,0,0,.00009,85.80092q-.00018.11563,0,.2312a5.73523,5.73523,0,0,0,11.47046.01563v-.01562A74.4132,74.4132,0,0,1,85.73575,11.47121Z"/><path class="cls-1" d="M240.8898,246.62508a5.73528,5.73528,0,0,0,5.73529-5.73523v-.00006a5.41837,5.41837,0,0,0-5.73523-5.73523,5.73526,5.73526,0,0,0-.00006,11.47052Z"/></g></g></svg>