<svg xmlns="http://www.w3.org/2000/svg" viewBox="0 0 305.52989 366.63587"><defs><style>.cls-1{fill:#ed1f24;}</style></defs><title>um</title><g id="Layer_2" data-name="Layer 2"><g id="Layer_1-2" data-name="Layer 1"><path class="cls-1" d="M305.21826,172.6305a5.95675,5.95675,0,0,0,.25664-1.2649c.00611-.09166.055-.17108.055-.26886,0-82.18754-65.24284-149.38578-146.65435-152.61218V6.1106a6.1106,6.1106,0,0,0-12.2212,0v12.374C65.24285,21.711,0,88.9092,0,171.09674c0,.09777.04888.1772.055.275a5.74054,5.74054,0,0,0,.25664,1.2649,6.5213,6.5213,0,0,0,.30553,1.051,6.09476,6.09476,0,0,0,.59884.886,6.03146,6.03146,0,0,0,.82493,1.02047c.06722.06111.09777.15276.1711.21387a5.89842,5.89842,0,0,0,.72105.39107,5.72829,5.72829,0,0,0,1.11213.59884,5.657,5.657,0,0,0,1.30156.26275c.26276.02444.495.14666.76382.14666.09166,0,.165-.04888.25664-.04888a5.96048,5.96048,0,0,0,1.34433-.26887,5.51666,5.51666,0,0,0,.96547-.2872,6.05713,6.05713,0,0,0,.95325-.64161,6.19767,6.19767,0,0,0,.95936-.77605c.06722-.07332.15888-.10388.22609-.18332,8.61594-10.40022,19.96943-16.12586,31.95843-16.12586s23.34248,5.72563,31.95842,16.12587c.1161.14055.29331.19554.42163.32386a5.70585,5.70585,0,0,0,.385.47662,6.29924,6.29924,0,0,0,.79437.43385,5.483,5.483,0,0,0,.92881.50107,5.74743,5.74743,0,0,0,1.52154.33,6.594,6.594,0,0,0,.65384.14055c.09777,0,.18943-.04277.28108-.04888a9.1728,9.1728,0,0,0,2.1265-.51329,5.50914,5.50914,0,0,0,.8616-.495,5.18675,5.18675,0,0,0,.61717-.35442c.14666-.12221.21387-.29331.3483-.42774a5.30676,5.30676,0,0,0,.4583-.37275c8.62816-10.39413,19.98165-16.11976,31.97064-16.11976,11.36572,0,22.12036,5.194,30.553,14.57988V336.08288a18.33179,18.33179,0,1,1-36.66359,0,6.1106,6.1106,0,0,0-12.2212,0,30.553,30.553,0,0,0,61.106,0V173.45543c8.43263-9.38587,19.18727-14.57988,30.553-14.57988,11.989,0,23.34248,5.72563,31.95842,16.12587.11611.14055.29331.19554.42163.32386a5.70348,5.70348,0,0,0,.385.47662,6.25076,6.25076,0,0,0,.79438.42774,5.78061,5.78061,0,0,0,.93492.50718,5.88714,5.88714,0,0,0,1.52154.33,6.132,6.132,0,0,0,.64772.14055c.09776,0,.18942-.04277.2811-.04888a5.16663,5.16663,0,0,0,.91047-.15887,6.14492,6.14492,0,0,0,1.216-.35442,5.78543,5.78543,0,0,0,.86769-.495,6.13992,6.13992,0,0,0,.61718-.3483,4.5634,4.5634,0,0,0,.34219-.42774c.14054-.14055.33-.21387.46441-.37275,8.622-10.40025,19.97553-16.12588,31.96453-16.12588s23.34248,5.72563,31.95842,16.12587c.0611.07332.14664.09166.21387.165a6.14017,6.14017,0,0,0,1.49709,1.14879,5.15763,5.15763,0,0,0,.53774.36053,6.08611,6.08611,0,0,0,2.45646.53162h0a5.99836,5.99836,0,0,0,2.20593-.44607,6.21877,6.21877,0,0,0,.75772-.43385,5.61029,5.61029,0,0,0,.92881-.53162c.07333-.06111.10387-.14666.1711-.21387a6.08878,6.08878,0,0,0,.82492-1.02047,6.44338,6.44338,0,0,0,.59884-.886A5.30654,5.30654,0,0,0,305.21826,172.6305Zm-42.46255-25.97615c-13.5533,0-26.3489,5.469-36.66359,15.48426-10.31469-10.01527-23.11029-15.48426-36.66359-15.48426s-26.3489,5.469-36.66359,15.48426c-10.31469-10.01527-23.11028-15.48426-36.66359-15.48426s-26.3489,5.469-36.66359,15.48426c-10.31469-10.01527-23.11028-15.48426-36.66359-15.48426A50.98186,50.98186,0,0,0,12.985,156.46185C20.33,85.81723,80.21382,30.553,152.76495,30.553s132.435,55.26424,139.77992,125.90886A50.98188,50.98188,0,0,0,262.75571,146.65435Z"/></g></g></svg>